<?xml version="1.0" encoding="utf-8" standalone="no"?>
<!DOCTYPE svg PUBLIC "-//W3C//DTD SVG 1.1//EN"
  "http://www.w3.org/Graphics/SVG/1.1/DTD/svg11.dtd">
<!-- Created with matplotlib (http://matplotlib.org/) -->
<svg height="432pt" version="1.1" viewBox="0 0 576 432" width="576pt" xmlns="http://www.w3.org/2000/svg" xmlns:xlink="http://www.w3.org/1999/xlink">
 <defs>
  <style type="text/css">
*{stroke-linecap:butt;stroke-linejoin:round;}
  </style>
 </defs>
 <g id="figure_1">
  <g id="patch_1">
   <path d="
M0 432
L576 432
L576 0
L0 0
z
" style="fill:#ffffff;"/>
  </g>
  <g id="axes_1">
   <g id="patch_2">
    <path d="
M72 388.8
L518.4 388.8
L518.4 43.2
L72 43.2
z
" style="fill:#ffffff;"/>
   </g>
   <g id="line2d_1">
    <path clip-path="url(#p7ff5b81e1d)" d="
M72 129.605
L72.4468 134.401
L73.3405 153.818
L73.7874 158.313
L74.2342 155.892
L74.6811 147.602
L75.1279 137.215
L75.5748 130.193
L76.0216 132.166
L76.4685 147.31
L76.9153 177.029
L77.809 268.814
L78.7027 358.608
L79.1495 383.403
L79.5964 387.885
L80.0432 371.228
L80.4901 336.484
L82.2775 157.994
L82.7243 136.738
L83.1712 129.633
L83.618 133.533
L84.5117 152.978
L84.9586 158.152
L85.4054 156.478
L85.8523 148.681
L86.2991 138.276
L86.7459 130.61
L87.1928 131.376
L87.6396 144.977
L88.0865 173.163
L88.9802 263.355
L89.8739 354.888
L90.3207 381.659
L90.7676 388.436
L91.2144 373.973
L91.6613 340.923
L93.4486 161.158
L93.8955 138.317
L94.3423 129.792
L94.7892 132.732
L95.6829 152.083
L96.1297 157.908
L96.5766 156.991
L97.0234 149.727
L97.9171 131.126
L98.364 130.737
L98.8108 142.817
L99.2577 169.45
L100.151 257.902
L101.045 350.991
L101.492 379.68
L101.939 388.738
L102.386 376.5
L102.832 345.214
L104.62 164.486
L105.067 140.065
L105.514 130.085
L105.96 132.007
L107.301 157.583
L107.748 157.427
L108.195 150.736
L109.088 131.733
L109.535 130.245
L109.982 140.829
L110.429 165.895
L111.323 252.467
L112.216 346.924
L112.663 377.47
L113.11 388.789
L113.557 378.803
L114.004 349.347
L114.897 255.676
L115.791 167.977
L116.238 141.983
L116.685 130.518
L117.132 131.363
L118.472 157.178
L118.919 157.784
L119.366 151.701
L120.259 132.426
L120.706 129.895
L121.153 139.012
L121.6 162.499
L122.047 199.837
L123.387 342.696
L123.834 375.034
L124.281 388.59
L124.728 380.878
L125.175 353.315
L126.068 261.123
L126.962 171.626
L127.409 144.073
L127.856 131.096
L128.303 130.809
L128.75 138.719
L129.196 149.113
L129.643 156.697
L130.09 158.062
L130.537 152.618
L131.431 133.197
L131.877 129.682
L132.324 137.364
L132.771 159.268
L133.218 195.247
L135.005 372.377
L135.452 388.14
L135.899 382.718
L136.346 357.108
L137.24 266.581
L138.133 175.43
L138.58 146.335
L139.027 131.824
L139.474 130.351
L139.921 137.645
L140.814 156.141
L141.261 158.257
L141.708 153.482
L142.602 134.038
L143.049 129.601
L143.495 135.884
L143.942 156.203
L144.389 190.781
L146.177 369.505
L146.623 387.442
L147.07 384.322
L147.517 360.719
L148.411 272.04
L149.305 179.384
L149.751 148.769
L150.198 132.706
L150.645 129.996
L151.092 136.606
L151.986 155.512
L152.432 158.37
L152.879 154.287
L153.773 134.943
L154.22 129.646
L154.667 134.57
L155.114 153.307
L155.56 186.446
L157.348 366.424
L157.795 386.496
L158.241 385.685
L158.688 364.14
L159.135 325.796
L160.476 183.484
L160.923 151.375
L161.369 133.745
L161.816 129.75
L162.263 135.611
L163.157 154.815
L163.604 158.399
L164.05 155.03
L165.391 129.811
L165.838 133.418
L166.285 150.581
L166.732 182.247
L167.625 275.868
L168.519 363.141
L168.966 385.304
L169.413 386.803
L169.859 367.364
L170.306 330.54
L171.647 187.724
L172.094 154.152
L172.541 134.944
L172.987 129.62
L173.434 134.667
L174.328 154.053
L174.775 158.345
L175.222 155.707
L176.562 130.09
L177.009 132.427
L177.456 148.026
L177.903 178.19
L178.796 270.414
L179.69 359.663
L180.137 383.869
L180.584 387.676
L181.031 370.383
L181.477 335.157
L183.265 157.099
L183.712 136.308
L184.159 129.612
L184.605 133.78
L185.499 153.23
L185.946 158.207
L186.393 156.314
L186.84 148.368
L187.286 137.961
L187.733 130.477
L188.18 131.591
L188.627 145.643
L189.074 174.28
L189.968 264.954
L190.861 355.997
L191.308 382.195
L191.755 388.3
L192.202 373.191
L192.649 339.637
L194.436 160.214
L194.883 137.837
L195.33 129.732
L195.777 132.959
L196.67 152.35
L197.117 157.988
L197.564 156.848
L198.011 149.424
L198.905 130.965
L199.351 130.909
L199.798 143.432
L200.245 170.522
L201.139 259.498
L202.032 352.15
L202.479 380.284
L202.926 388.675
L203.373 375.783
L203.82 343.973
L205.607 163.494
L206.054 139.536
L206.501 129.985
L206.948 132.211
L208.288 157.686
L208.735 157.307
L209.182 150.445
L210.076 131.546
L210.523 130.374
L210.969 141.394
L211.416 166.92
L212.31 254.057
L213.204 348.132
L213.65 378.141
L214.097 388.8
L214.544 378.152
L214.991 348.153
L216.778 166.938
L217.225 141.404
L217.672 130.376
L218.119 131.543
L219.459 157.305
L219.906 157.688
L220.353 151.423
L221.247 132.215
L221.694 129.983
L222.141 139.526
L222.587 163.477
L223.034 201.204
L224.375 343.951
L224.822 375.77
L225.268 388.674
L225.715 380.294
L226.162 352.17
L227.056 259.526
L227.95 170.541
L228.396 143.443
L228.843 130.912
L229.29 130.962
L229.737 139.039
L230.184 149.419
L230.631 156.846
L231.077 157.989
L231.524 152.355
L232.418 132.963
L232.865 129.731
L233.312 137.829
L233.759 160.198
L234.205 196.579
L235.993 373.178
L236.44 388.298
L236.886 382.204
L237.333 356.016
L238.227 264.981
L239.121 174.299
L239.568 145.655
L240.014 131.595
L240.461 130.475
L240.908 137.956
L241.802 156.311
L242.249 158.207
L242.695 153.232
L243.589 133.762
L244.036 129.554
L244.483 136.16
L244.93 156.765
L245.377 191.396
L247.164 362.836
L247.611 375.923
L248.058 366.662
L248.505 335.988
L249.398 233.251
L250.292 132.767
L250.739 102.31
L251.186 89.209
L251.632 91.7152
L252.079 104.906
L252.973 137.261
L253.42 145.6
L253.867 145.784
L254.314 139.664
L254.76 131.782
L255.207 128.066
L255.654 134.152
L256.101 153.765
L256.548 187.536
L258.335 367.344
L258.782 386.797
L259.229 385.31
L259.676 363.158
L260.123 324.384
L261.463 182.268
L261.91 150.594
L262.357 133.424
L262.804 129.81
L263.25 135.898
L264.144 155.026
L264.591 158.399
L265.038 154.819
L266.378 129.751
L266.825 133.739
L267.272 151.361
L267.719 183.463
L269.506 364.123
L269.953 385.678
L270.4 386.501
L270.847 366.44
L271.294 329.163
L272.634 186.467
L273.081 153.321
L273.528 134.576
L273.975 129.646
L274.422 134.938
L275.315 154.283
L275.762 158.369
L276.209 155.516
L277.55 129.997
L277.996 132.701
L278.443 148.756
L278.89 179.363
L279.784 272.013
L280.677 360.701
L281.124 384.314
L281.571 387.446
L282.018 369.52
L282.465 333.818
L284.252 156.218
L284.699 135.891
L285.146 129.601
L285.593 134.034
L286.486 153.477
L286.933 158.256
L287.38 156.144
L287.827 148.052
L288.274 137.65
L288.721 130.353
L289.168 131.82
L289.614 146.323
L290.061 175.41
L290.955 266.553
L291.849 357.09
L292.295 382.71
L292.742 388.143
L293.189 372.391
L293.636 338.339
L295.423 159.284
L295.87 137.372
L296.317 129.683
L296.764 133.193
L297.658 152.614
L298.105 158.06
L298.551 156.7
L298.998 149.118
L299.892 130.812
L300.339 131.093
L300.786 144.062
L301.232 171.607
L302.126 261.095
L303.02 353.295
L303.467 380.868
L303.914 388.591
L304.36 375.047
L304.807 342.718
L306.595 162.516
L307.041 139.021
L307.488 129.896
L307.935 132.422
L309.276 157.783
L309.723 157.181
L310.169 150.15
L311.063 131.366
L311.51 130.516
L311.957 141.973
L312.404 167.959
L313.297 255.649
L314.191 349.327
L314.638 378.792
L315.085 388.789
L315.532 377.481
L315.978 346.945
L317.766 165.912
L318.213 140.839
L318.659 130.247
L319.106 131.73
L320.447 157.425
L320.894 157.585
L321.341 151.141
L322.234 132.01
L322.681 130.083
L323.128 140.056
L323.575 164.469
L324.022 202.581
L325.362 345.192
L325.809 376.488
L326.256 388.737
L326.703 379.69
L327.15 351.011
L328.043 257.93
L328.937 169.469
L329.384 142.828
L329.831 130.74
L330.277 131.123
L330.724 139.362
L331.171 149.722
L331.618 156.988
L332.065 157.909
L332.512 152.087
L333.405 132.736
L333.852 129.791
L334.299 138.309
L334.746 161.141
L335.193 197.922
L336.98 373.96
L337.427 388.434
L337.874 381.668
L338.321 354.907
L339.214 263.382
L340.108 173.182
L340.555 144.989
L341.002 131.379
L341.449 130.607
L341.895 138.27
L342.342 148.675
L342.789 156.475
L343.236 158.153
L343.683 152.983
L344.577 133.537
L345.023 129.633
L345.47 136.731
L345.917 157.979
L346.364 193.382
L348.151 371.213
L348.598 387.881
L349.045 383.411
L349.492 358.626
L350.386 268.842
L351.279 177.049
L351.726 147.322
L352.173 132.17
L352.62 130.191
L353.067 137.21
L353.96 155.889
L354.407 158.314
L354.854 153.822
L355.748 134.405
L356.195 129.605
L356.641 135.32
L357.088 154.983
L357.535 188.97
L359.323 368.254
L359.769 387.08
L360.216 384.916
L360.663 362.159
L361.557 274.299
L362.45 181.064
L362.897 149.827
L363.344 133.117
L363.791 129.88
L364.238 136.189
L365.132 155.232
L365.578 158.392
L366.025 154.602
L366.919 135.334
L367.366 129.7
L367.813 134.073
L368.259 152.157
L368.706 184.69
L370.494 365.089
L370.941 386.032
L371.387 386.178
L371.834 365.499
L372.281 327.775
L373.622 185.223
L374.068 152.504
L374.515 134.222
L374.962 129.682
L375.409 135.214
L376.303 154.507
L376.75 158.387
L377.196 155.318
L378.537 129.913
L378.984 132.989
L379.431 149.502
L379.877 180.549
L380.771 273.611
L381.665 361.724
L382.112 384.739
L382.559 387.195
L383.005 368.639
L383.452 332.467
L384.793 189.52
L385.24 155.352
L385.686 135.489
L386.133 129.601
L386.58 134.292
L387.474 153.72
L387.921 158.298
L388.368 155.967
L388.814 147.734
L389.261 137.342
L389.708 130.238
L390.155 132.062
L390.602 147.018
L391.049 176.553
L391.942 268.153
L392.836 358.167
L393.283 383.205
L393.73 387.965
L394.177 371.572
L394.623 337.029
L396.411 158.369
L396.858 136.921
L397.305 129.646
L397.751 133.432
L398.645 152.872
L399.092 158.126
L399.539 156.544
L399.986 148.809
L400.432 138.406
L400.879 130.667
L401.326 131.29
L401.773 144.707
L402.22 172.705
L403.114 262.693
L404.007 354.425
L404.454 381.432
L404.901 388.486
L405.348 374.291
L405.795 341.451
L407.582 161.552
L408.029 138.52
L408.476 129.82
L408.923 132.64
L409.816 151.971
L410.263 157.873
L410.71 157.048
L411.157 149.852
L412.05 131.194
L412.497 130.67
L412.944 142.567
L413.391 169.011
L414.285 257.243
L415.178 350.507
L415.625 379.424
L416.072 388.757
L416.519 376.791
L416.966 345.723
L418.753 164.901
L419.2 140.288
L419.647 130.13
L420.094 131.924
L421.434 157.538
L421.881 157.474
L422.328 150.855
L423.222 131.813
L423.668 130.195
L424.115 140.6
L424.562 165.475
L425.456 251.811
L426.35 346.42
L426.796 377.187
L427.243 388.778
L427.69 379.067
L428.137 349.837
L429.031 256.335
L429.924 168.41
L430.371 142.227
L430.818 130.58
L431.265 131.291
L432.605 157.124
L433.052 157.822
L433.499 151.815
L434.393 132.516
L434.84 129.862
L435.286 138.803
L435.733 162.099
L436.18 199.274
L437.521 342.174
L437.968 374.723
L438.414 388.549
L438.861 381.113
L439.308 353.784
L440.202 261.784
L441.095 172.078
L441.542 144.338
L441.989 131.177
L442.436 130.748
L442.883 138.587
L443.33 148.986
L443.777 156.633
L444.223 158.09
L444.67 152.726
L445.564 133.295
L446.011 129.665
L446.458 137.176
L446.905 158.888
L447.351 194.699
L449.139 372.04
L449.586 388.069
L450.032 382.925
L450.479 357.556
L451.373 267.243
L452.267 175.901
L452.714 146.621
L453.16 131.923
L453.607 130.302
L454.054 137.517
L454.948 156.068
L455.395 158.275
L455.841 153.582
L456.735 134.144
L457.182 129.6
L457.629 135.716
L458.076 155.843
L458.523 190.249
L460.31 369.143
L460.757 387.34
L461.204 384.5
L461.65 361.144
L462.544 272.701
L463.438 179.873
L463.885 149.076
L464.332 132.823
L464.778 129.96
L465.225 136.483
L466.119 155.431
L466.566 158.378
L467.013 154.38
L467.906 135.056
L468.353 129.66
L468.8 134.422
L469.247 152.967
L469.694 185.93
L471.481 366.037
L471.928 386.364
L472.375 385.833
L472.822 364.541
L473.268 326.377
L474.609 183.99
L475.056 151.702
L475.503 133.881
L475.95 129.728
L476.396 135.494
L477.29 154.726
L477.737 158.397
L478.184 155.116
L479.524 129.839
L479.971 133.29
L480.418 150.262
L480.865 181.748
L481.759 275.208
L482.652 362.73
L483.099 385.143
L483.546 386.922
L483.993 367.74
L484.44 331.106
L485.78 188.247
L486.227 154.5
L486.674 135.101
L487.121 129.612
L487.568 134.556
L488.461 153.957
L488.908 158.333
L489.355 155.784
L490.695 130.132
L491.142 132.317
L491.589 147.728
L492.036 177.708
L492.93 269.752
L493.823 359.228
L494.27 383.679
L494.717 387.765
L495.164 370.734
L495.611 335.707
L497.398 157.467
L497.845 136.484
L498.292 129.619
L498.739 133.677
L499.632 153.127
L500.079 158.185
L500.526 156.383
L500.973 148.498
L501.42 138.091
L501.867 130.531
L502.314 131.501
L502.76 145.366
L503.207 173.817
L504.101 264.292
L504.995 355.54
L505.441 381.976
L505.888 388.359
L506.335 373.517
L506.782 340.17
L508.569 160.602
L509.016 138.034
L509.463 129.755
L509.91 132.865
L510.804 152.24
L511.25 157.955
L511.697 156.908
L512.144 149.55
L513.038 131.03
L513.485 130.836
L513.932 143.176
L514.378 170.077
L515.272 258.838
L516.166 351.673
L516.613 380.036
L517.059 388.704
L517.506 376.082
L517.953 344.487
L518.4 299.627
L518.4 299.627" style="fill:none;stroke:#0000ff;stroke-linecap:square;"/>
   </g>
   <g id="line2d_2">
    <path clip-path="url(#p7ff5b81e1d)" d="
M72 89.209
L518.4 89.209" style="fill:none;stroke:#ff0000;stroke-linecap:square;"/>
   </g>
   <g id="matplotlib.axis_1">
    <g id="xtick_1">
     <g id="line2d_3">
      <defs>
       <path d="
M0 0
L0 -4" id="m93b0483c22" style="stroke:#000000;stroke-width:0.5;"/>
      </defs>
      <g>
       <use style="stroke:#000000;stroke-width:0.5;" x="72.0" xlink:href="#m93b0483c22" y="388.8"/>
      </g>
     </g>
     <g id="line2d_4">
      <defs>
       <path d="
M0 0
L0 4" id="m741efc42ff" style="stroke:#000000;stroke-width:0.5;"/>
      </defs>
      <g>
       <use style="stroke:#000000;stroke-width:0.5;" x="72.0" xlink:href="#m741efc42ff" y="43.2"/>
      </g>
     </g>
     <g id="text_1">
      <!-- −100 -->
      <defs>
       <path d="
M4.15625 35.2969
Q4.15625 48 6.76562 55.7344
Q9.375 63.4844 14.5156 67.6719
Q19.6719 71.875 27.4844 71.875
Q33.25 71.875 37.5938 69.5469
Q41.9375 67.2344 44.7656 62.8594
Q47.6094 58.5 49.2188 52.2188
Q50.8281 45.9531 50.8281 35.2969
Q50.8281 22.7031 48.2344 14.9688
Q45.6562 7.23438 40.5 3
Q35.3594 -1.21875 27.4844 -1.21875
Q17.1406 -1.21875 11.2344 6.20312
Q4.15625 15.1406 4.15625 35.2969
M13.1875 35.2969
Q13.1875 17.6719 17.3125 11.8281
Q21.4375 6 27.4844 6
Q33.5469 6 37.6719 11.8594
Q41.7969 17.7188 41.7969 35.2969
Q41.7969 52.9844 37.6719 58.7812
Q33.5469 64.5938 27.3906 64.5938
Q21.3438 64.5938 17.7188 59.4688
Q13.1875 52.9375 13.1875 35.2969" id="ArialMT-30"/>
       <path d="
M37.25 0
L28.4688 0
L28.4688 56
Q25.2969 52.9844 20.1406 49.9531
Q14.9844 46.9219 10.8906 45.4062
L10.8906 53.9062
Q18.2656 57.375 23.7812 62.2969
Q29.2969 67.2344 31.5938 71.875
L37.25 71.875
z
" id="ArialMT-31"/>
       <path d="
M52.8281 31.2031
L5.5625 31.2031
L5.5625 39.4062
L52.8281 39.4062
z
" id="ArialMT-2212"/>
      </defs>
      <g transform="translate(59.1065625 401.389375)scale(0.12 -0.12)">
       <use xlink:href="#ArialMT-2212"/>
       <use x="58.3984375" xlink:href="#ArialMT-31"/>
       <use x="114.013671875" xlink:href="#ArialMT-30"/>
       <use x="169.62890625" xlink:href="#ArialMT-30"/>
      </g>
     </g>
    </g>
    <g id="xtick_2">
     <g id="line2d_5">
      <g>
       <use style="stroke:#000000;stroke-width:0.5;" x="161.28" xlink:href="#m93b0483c22" y="388.8"/>
      </g>
     </g>
     <g id="line2d_6">
      <g>
       <use style="stroke:#000000;stroke-width:0.5;" x="161.28" xlink:href="#m741efc42ff" y="43.2"/>
      </g>
     </g>
     <g id="text_2">
      <!-- −50 -->
      <defs>
       <path d="
M4.15625 18.75
L13.375 19.5312
Q14.4062 12.7969 18.1406 9.39062
Q21.875 6 27.1562 6
Q33.5 6 37.8906 10.7812
Q42.2812 15.5781 42.2812 23.4844
Q42.2812 31 38.0625 35.3438
Q33.8438 39.7031 27 39.7031
Q22.75 39.7031 19.3281 37.7656
Q15.9219 35.8438 13.9688 32.7656
L5.71875 33.8438
L12.6406 70.6094
L48.25 70.6094
L48.25 62.2031
L19.6719 62.2031
L15.8281 42.9688
Q22.2656 47.4688 29.3438 47.4688
Q38.7188 47.4688 45.1562 40.9688
Q51.6094 34.4688 51.6094 24.2656
Q51.6094 14.5469 45.9531 7.46875
Q39.0625 -1.21875 27.1562 -1.21875
Q17.3906 -1.21875 11.2031 4.25
Q5.03125 9.71875 4.15625 18.75" id="ArialMT-35"/>
      </defs>
      <g transform="translate(151.723125 401.389375)scale(0.12 -0.12)">
       <use xlink:href="#ArialMT-2212"/>
       <use x="58.3984375" xlink:href="#ArialMT-35"/>
       <use x="114.013671875" xlink:href="#ArialMT-30"/>
      </g>
     </g>
    </g>
    <g id="xtick_3">
     <g id="line2d_7">
      <g>
       <use style="stroke:#000000;stroke-width:0.5;" x="250.56" xlink:href="#m93b0483c22" y="388.8"/>
      </g>
     </g>
     <g id="line2d_8">
      <g>
       <use style="stroke:#000000;stroke-width:0.5;" x="250.56" xlink:href="#m741efc42ff" y="43.2"/>
      </g>
     </g>
     <g id="text_3">
      <!-- 0 -->
      <g transform="translate(247.7596875 401.389375)scale(0.12 -0.12)">
       <use xlink:href="#ArialMT-30"/>
      </g>
     </g>
    </g>
    <g id="xtick_4">
     <g id="line2d_9">
      <g>
       <use style="stroke:#000000;stroke-width:0.5;" x="339.84" xlink:href="#m93b0483c22" y="388.8"/>
      </g>
     </g>
     <g id="line2d_10">
      <g>
       <use style="stroke:#000000;stroke-width:0.5;" x="339.84" xlink:href="#m741efc42ff" y="43.2"/>
      </g>
     </g>
     <g id="text_4">
      <!-- 50 -->
      <g transform="translate(333.703125 401.389375)scale(0.12 -0.12)">
       <use xlink:href="#ArialMT-35"/>
       <use x="55.615234375" xlink:href="#ArialMT-30"/>
      </g>
     </g>
    </g>
    <g id="xtick_5">
     <g id="line2d_11">
      <g>
       <use style="stroke:#000000;stroke-width:0.5;" x="429.12" xlink:href="#m93b0483c22" y="388.8"/>
      </g>
     </g>
     <g id="line2d_12">
      <g>
       <use style="stroke:#000000;stroke-width:0.5;" x="429.12" xlink:href="#m741efc42ff" y="43.2"/>
      </g>
     </g>
     <g id="text_5">
      <!-- 100 -->
      <g transform="translate(420.050625 401.389375)scale(0.12 -0.12)">
       <use xlink:href="#ArialMT-31"/>
       <use x="55.615234375" xlink:href="#ArialMT-30"/>
       <use x="111.23046875" xlink:href="#ArialMT-30"/>
      </g>
     </g>
    </g>
    <g id="xtick_6">
     <g id="line2d_13">
      <g>
       <use style="stroke:#000000;stroke-width:0.5;" x="518.4" xlink:href="#m93b0483c22" y="388.8"/>
      </g>
     </g>
     <g id="line2d_14">
      <g>
       <use style="stroke:#000000;stroke-width:0.5;" x="518.4" xlink:href="#m741efc42ff" y="43.2"/>
      </g>
     </g>
     <g id="text_6">
      <!-- 150 -->
      <g transform="translate(509.330625 401.389375)scale(0.12 -0.12)">
       <use xlink:href="#ArialMT-31"/>
       <use x="55.615234375" xlink:href="#ArialMT-35"/>
       <use x="111.23046875" xlink:href="#ArialMT-30"/>
      </g>
     </g>
    </g>
   </g>
   <g id="matplotlib.axis_2">
    <g id="ytick_1">
     <g id="line2d_15">
      <defs>
       <path d="
M0 0
L4 0" id="m728421d6d4" style="stroke:#000000;stroke-width:0.5;"/>
      </defs>
      <g>
       <use style="stroke:#000000;stroke-width:0.5;" x="72.0" xlink:href="#m728421d6d4" y="388.8"/>
      </g>
     </g>
     <g id="line2d_16">
      <defs>
       <path d="
M0 0
L-4 0" id="mcb0005524f" style="stroke:#000000;stroke-width:0.5;"/>
      </defs>
      <g>
       <use style="stroke:#000000;stroke-width:0.5;" x="518.4" xlink:href="#mcb0005524f" y="388.8"/>
      </g>
     </g>
     <g id="text_7">
      <!-- −1.0 -->
      <defs>
       <path d="
M9.07812 0
L9.07812 10.0156
L19.0938 10.0156
L19.0938 0
z
" id="ArialMT-2e"/>
      </defs>
      <g transform="translate(45.5525 391.9021875)scale(0.12 -0.12)">
       <use xlink:href="#ArialMT-2212"/>
       <use x="58.3984375" xlink:href="#ArialMT-31"/>
       <use x="114.013671875" xlink:href="#ArialMT-2e"/>
       <use x="141.796875" xlink:href="#ArialMT-30"/>
      </g>
     </g>
    </g>
    <g id="ytick_2">
     <g id="line2d_17">
      <g>
       <use style="stroke:#000000;stroke-width:0.5;" x="72.0" xlink:href="#m728421d6d4" y="331.2"/>
      </g>
     </g>
     <g id="line2d_18">
      <g>
       <use style="stroke:#000000;stroke-width:0.5;" x="518.4" xlink:href="#mcb0005524f" y="331.2"/>
      </g>
     </g>
     <g id="text_8">
      <!-- −0.5 -->
      <g transform="translate(45.45875 334.3021875)scale(0.12 -0.12)">
       <use xlink:href="#ArialMT-2212"/>
       <use x="58.3984375" xlink:href="#ArialMT-30"/>
       <use x="114.013671875" xlink:href="#ArialMT-2e"/>
       <use x="141.796875" xlink:href="#ArialMT-35"/>
      </g>
     </g>
    </g>
    <g id="ytick_3">
     <g id="line2d_19">
      <g>
       <use style="stroke:#000000;stroke-width:0.5;" x="72.0" xlink:href="#m728421d6d4" y="273.6"/>
      </g>
     </g>
     <g id="line2d_20">
      <g>
       <use style="stroke:#000000;stroke-width:0.5;" x="518.4" xlink:href="#mcb0005524f" y="273.6"/>
      </g>
     </g>
     <g id="text_9">
      <!-- 0.0 -->
      <g transform="translate(52.3925 276.7021875)scale(0.12 -0.12)">
       <use xlink:href="#ArialMT-30"/>
       <use x="55.615234375" xlink:href="#ArialMT-2e"/>
       <use x="83.3984375" xlink:href="#ArialMT-30"/>
      </g>
     </g>
    </g>
    <g id="ytick_4">
     <g id="line2d_21">
      <g>
       <use style="stroke:#000000;stroke-width:0.5;" x="72.0" xlink:href="#m728421d6d4" y="216.0"/>
      </g>
     </g>
     <g id="line2d_22">
      <g>
       <use style="stroke:#000000;stroke-width:0.5;" x="518.4" xlink:href="#mcb0005524f" y="216.0"/>
      </g>
     </g>
     <g id="text_10">
      <!-- 0.5 -->
      <g transform="translate(52.29875 219.1021875)scale(0.12 -0.12)">
       <use xlink:href="#ArialMT-30"/>
       <use x="55.615234375" xlink:href="#ArialMT-2e"/>
       <use x="83.3984375" xlink:href="#ArialMT-35"/>
      </g>
     </g>
    </g>
    <g id="ytick_5">
     <g id="line2d_23">
      <g>
       <use style="stroke:#000000;stroke-width:0.5;" x="72.0" xlink:href="#m728421d6d4" y="158.4"/>
      </g>
     </g>
     <g id="line2d_24">
      <g>
       <use style="stroke:#000000;stroke-width:0.5;" x="518.4" xlink:href="#mcb0005524f" y="158.4"/>
      </g>
     </g>
     <g id="text_11">
      <!-- 1.0 -->
      <g transform="translate(53.200625 161.5021875)scale(0.12 -0.12)">
       <use xlink:href="#ArialMT-31"/>
       <use x="55.615234375" xlink:href="#ArialMT-2e"/>
       <use x="83.3984375" xlink:href="#ArialMT-30"/>
      </g>
     </g>
    </g>
    <g id="ytick_6">
     <g id="line2d_25">
      <g>
       <use style="stroke:#000000;stroke-width:0.5;" x="72.0" xlink:href="#m728421d6d4" y="100.8"/>
      </g>
     </g>
     <g id="line2d_26">
      <g>
       <use style="stroke:#000000;stroke-width:0.5;" x="518.4" xlink:href="#mcb0005524f" y="100.8"/>
      </g>
     </g>
     <g id="text_12">
      <!-- 1.5 -->
      <g transform="translate(53.106875 103.9021875)scale(0.12 -0.12)">
       <use xlink:href="#ArialMT-31"/>
       <use x="55.615234375" xlink:href="#ArialMT-2e"/>
       <use x="83.3984375" xlink:href="#ArialMT-35"/>
      </g>
     </g>
    </g>
    <g id="ytick_7">
     <g id="line2d_27">
      <g>
       <use style="stroke:#000000;stroke-width:0.5;" x="72.0" xlink:href="#m728421d6d4" y="43.2"/>
      </g>
     </g>
     <g id="line2d_28">
      <g>
       <use style="stroke:#000000;stroke-width:0.5;" x="518.4" xlink:href="#mcb0005524f" y="43.2"/>
      </g>
     </g>
     <g id="text_13">
      <!-- 2.0 -->
      <defs>
       <path d="
M50.3438 8.45312
L50.3438 0
L3.03125 0
Q2.9375 3.17188 4.04688 6.10938
Q5.85938 10.9375 9.82812 15.625
Q13.8125 20.3125 21.3438 26.4688
Q33.0156 36.0312 37.1094 41.625
Q41.2188 47.2188 41.2188 52.2031
Q41.2188 57.4219 37.4688 61
Q33.7344 64.5938 27.7344 64.5938
Q21.3906 64.5938 17.5781 60.7812
Q13.7656 56.9844 13.7188 50.25
L4.6875 51.1719
Q5.60938 61.2812 11.6562 66.5781
Q17.7188 71.875 27.9375 71.875
Q38.2344 71.875 44.2344 66.1562
Q50.25 60.4531 50.25 52
Q50.25 47.7031 48.4844 43.5469
Q46.7344 39.4062 42.6562 34.8125
Q38.5781 30.2188 29.1094 22.2188
Q21.1875 15.5781 18.9375 13.2031
Q16.7031 10.8438 15.2344 8.45312
z
" id="ArialMT-32"/>
      </defs>
      <g transform="translate(52.24625 46.3021875)scale(0.12 -0.12)">
       <use xlink:href="#ArialMT-32"/>
       <use x="55.615234375" xlink:href="#ArialMT-2e"/>
       <use x="83.3984375" xlink:href="#ArialMT-30"/>
      </g>
     </g>
    </g>
   </g>
   <g id="patch_3">
    <path d="
M72 43.2
L518.4 43.2" style="fill:none;stroke:#000000;"/>
   </g>
   <g id="patch_4">
    <path d="
M518.4 388.8
L518.4 43.2" style="fill:none;stroke:#000000;"/>
   </g>
   <g id="patch_5">
    <path d="
M72 388.8
L518.4 388.8" style="fill:none;stroke:#000000;"/>
   </g>
   <g id="patch_6">
    <path d="
M72 388.8
L72 43.2" style="fill:none;stroke:#000000;"/>
   </g>
  </g>
 </g>
 <defs>
  <clipPath id="p7ff5b81e1d">
   <rect height="345.6" width="446.4" x="72.0" y="43.2"/>
  </clipPath>
 </defs>
</svg>
