<?xml version="1.0" encoding="utf-8" standalone="no"?>
<!DOCTYPE svg PUBLIC "-//W3C//DTD SVG 1.1//EN"
  "http://www.w3.org/Graphics/SVG/1.1/DTD/svg11.dtd">
<!-- Created with matplotlib (http://matplotlib.org/) -->
<svg height="432pt" version="1.1" viewBox="0 0 576 432" width="576pt" xmlns="http://www.w3.org/2000/svg" xmlns:xlink="http://www.w3.org/1999/xlink">
 <defs>
  <style type="text/css">
*{stroke-linecap:butt;stroke-linejoin:round;}
  </style>
 </defs>
 <g id="figure_1">
  <g id="patch_1">
   <path d="
M0 432
L576 432
L576 0
L0 0
z
" style="fill:#ffffff;"/>
  </g>
  <g id="axes_1">
   <g id="patch_2">
    <path d="
M72 388.8
L518.4 388.8
L518.4 43.2
L72 43.2
z
" style="fill:#ffffff;"/>
   </g>
   <g id="line2d_1">
    <path clip-path="url(#p7ff5b81e1d)" d="
M72 138.511
L72.0893 138.772
L72.2679 140.373
L72.5804 145.753
L73.6072 165.243
L73.8304 166.305
L73.9197 166.248
L74.0536 165.645
L74.2769 163.336
L74.634 156.91
L75.5269 139.479
L75.7501 138.521
L75.8394 138.851
L76.018 140.922
L76.2859 147.937
L76.643 165.175
L77.0895 198.99
L77.8484 277.257
L78.6967 359.204
L79.1431 383.377
L79.411 388.64
L79.4556 388.794
L79.5003 388.74
L79.6342 387.329
L79.8574 380.891
L80.1699 363.879
L80.661 322.021
L82.3575 161.199
L82.7593 144.392
L83.0718 138.998
L83.2058 138.506
L83.2504 138.557
L83.3843 139.288
L83.6076 142.13
L84.054 151.414
L84.679 163.647
L84.9915 166.193
L85.0808 166.316
L85.1255 166.274
L85.2594 165.733
L85.4826 163.519
L85.8398 157.197
L86.7773 139.208
L86.9559 138.509
L87.0452 138.773
L87.2238 140.696
L87.447 145.994
L87.7595 159.278
L88.2059 190.11
L88.8756 256.237
L89.9471 361.451
L90.3489 382.918
L90.6167 388.552
L90.706 388.778
L90.7953 388.171
L90.9739 384.479
L91.2418 373
L91.6436 344.11
L92.3132 276.195
L93.2954 179.763
L93.7865 150.986
L94.1437 140.758
L94.3669 138.598
L94.4562 138.531
L94.5901 139.177
L94.8133 141.91
L95.2598 151.104
L95.9294 164.039
L96.1973 166.15
L96.2866 166.315
L96.3312 166.294
L96.4652 165.816
L96.6884 163.696
L97.0455 157.481
L97.9831 139.32
L98.1617 138.507
L98.2509 138.704
L98.3849 139.855
L98.6081 144.287
L98.9206 156.276
L99.3224 181.85
L99.9028 235.668
L101.242 366.592
L101.644 385.256
L101.867 388.726
L101.912 388.797
L101.912 388.797
L101.912 388.797
L102.001 388.316
L102.18 384.871
L102.448 373.74
L102.849 345.273
L103.519 277.673
L104.501 180.787
L104.992 151.548
L105.349 140.987
L105.573 138.645
L105.662 138.514
L105.751 138.793
L105.93 140.426
L106.242 145.839
L107.224 164.872
L107.492 166.308
L107.582 166.238
L107.716 165.617
L107.939 163.279
L108.296 156.821
L109.189 139.441
L109.367 138.514
L109.457 138.646
L109.591 139.69
L109.814 143.925
L110.126 155.614
L110.528 180.815
L111.109 234.255
L112.493 368.567
L112.894 386.048
L113.118 388.798
L113.207 388.442
L113.341 386.352
L113.564 378.826
L113.921 357.17
L114.457 307.939
L115.886 169.088
L116.332 146.993
L116.644 139.85
L116.868 138.507
L116.957 138.726
L117.136 140.258
L117.448 145.559
L118.475 165.162
L118.698 166.295
L118.787 166.267
L118.921 165.707
L119.145 163.463
L119.502 157.109
L120.439 139.174
L120.618 138.512
L120.707 138.796
L120.886 140.764
L121.109 146.125
L121.421 159.502
L121.868 190.457
L122.538 256.69
L123.609 361.745
L124.011 383.062
L124.279 388.581
L124.323 388.779
L124.368 388.768
L124.457 388.122
L124.636 384.354
L124.904 372.769
L125.305 343.749
L125.975 275.739
L126.957 179.45
L127.448 150.816
L127.806 140.69
L128.029 138.585
L128.073 138.509
L128.118 138.538
L128.252 139.21
L128.475 141.978
L128.922 151.199
L129.591 164.089
L129.859 166.164
L129.949 166.316
L129.993 166.289
L130.127 165.791
L130.35 163.642
L130.707 157.394
L131.645 139.285
L131.824 138.506
L131.913 138.724
L132.047 139.908
L132.27 144.402
L132.583 156.483
L132.984 182.172
L133.565 236.104
L134.904 366.86
L135.306 385.367
L135.529 388.741
L135.574 388.794
L135.663 388.273
L135.842 384.752
L136.109 373.514
L136.511 344.915
L137.181 277.218
L138.163 180.47
L138.654 151.374
L139.011 140.915
L139.235 138.629
L139.324 138.518
L139.413 138.816
L139.592 140.479
L139.904 145.927
L140.886 164.913
L141.154 166.311
L141.244 166.228
L141.377 165.588
L141.601 163.221
L142.003 155.76
L142.806 139.847
L143.029 138.511
L143.119 138.663
L143.253 139.74
L143.476 144.035
L143.788 155.817
L144.19 181.133
L144.77 234.69
L146.154 368.824
L146.512 384.999
L146.735 388.684
L146.779 388.8
L146.824 388.707
L146.958 387.18
L147.181 380.556
L147.494 363.31
L147.985 321.194
L149.681 160.734
L150.083 144.164
L150.396 138.938
L150.53 138.508
L150.619 138.746
L150.797 140.309
L151.11 145.645
L152.137 165.198
L152.36 166.299
L152.449 166.258
L152.583 165.68
L152.806 163.407
L153.164 157.02
L154.101 139.142
L154.28 138.515
L154.369 138.82
L154.548 140.834
L154.815 147.754
L155.173 164.861
L155.619 198.529
L156.378 276.69
L157.226 358.824
L157.673 383.203
L157.941 388.608
L157.985 388.787
L158.03 388.757
L158.119 388.072
L158.298 384.227
L158.566 372.536
L158.967 343.388
L159.682 270.388
L160.619 179.138
L161.11 150.646
L161.468 140.623
L161.691 138.573
L161.735 138.507
L161.78 138.546
L161.914 139.244
L162.137 142.045
L162.584 151.295
L163.253 164.139
L163.521 166.177
L163.61 166.317
L163.655 166.283
L163.789 165.766
L164.012 163.587
L164.369 157.306
L165.307 139.25
L165.486 138.507
L165.575 138.745
L165.753 140.612
L165.977 145.832
L166.289 159.001
L166.691 186.025
L167.316 246.027
L168.521 364.186
L168.923 384.207
L169.191 388.755
L169.236 388.788
L169.325 388.229
L169.504 384.631
L169.771 373.286
L170.173 344.557
L170.843 276.762
L171.825 180.155
L172.316 151.2
L172.673 140.845
L172.896 138.615
L172.986 138.523
L173.12 139.137
L173.343 141.828
L173.789 150.985
L174.459 163.976
L174.727 166.132
L174.861 166.3
L174.995 165.846
L175.218 163.763
L175.575 157.59
L176.557 139.013
L176.691 138.508
L176.736 138.541
L176.87 139.302
L177.048 142.01
L177.316 150.08
L177.673 168.774
L178.165 208.34
L179.236 321.129
L179.816 369.08
L180.174 385.114
L180.397 388.704
L180.441 388.8
L180.486 388.687
L180.62 387.102
L180.843 380.385
L181.156 363.023
L181.647 320.779
L183.343 160.503
L183.745 144.053
L184.058 138.909
L184.192 138.51
L184.281 138.767
L184.459 140.361
L184.772 145.731
L185.799 165.234
L186.022 166.304
L186.111 166.25
L186.245 165.652
L186.468 163.35
L186.826 156.931
L187.718 139.489
L187.942 138.52
L188.031 138.845
L188.21 140.904
L188.477 147.901
L188.835 165.113
L189.281 198.899
L190.04 277.146
L190.888 359.13
L191.335 383.343
L191.603 388.634
L191.647 388.793
L191.692 388.743
L191.826 387.346
L192.049 380.932
L192.361 363.949
L192.853 322.122
L194.594 158.815
L194.995 143.253
L195.263 139.006
L195.397 138.506
L195.442 138.555
L195.576 139.279
L195.799 142.113
L196.246 151.391
L196.871 163.633
L197.183 166.19
L197.272 166.317
L197.317 166.276
L197.451 165.74
L197.674 163.532
L198.031 157.218
L198.969 139.216
L199.147 138.508
L199.237 138.767
L199.415 140.679
L199.639 145.962
L199.951 159.224
L200.353 186.361
L200.978 246.473
L202.183 364.467
L202.585 384.334
L202.853 388.767
L202.898 388.78
L202.987 388.182
L203.165 384.509
L203.433 373.057
L203.835 344.198
L204.505 276.306
L205.487 179.84
L205.978 151.028
L206.335 140.775
L206.558 138.601
L206.648 138.529
L206.782 139.169
L207.005 141.894
L207.451 151.08
L208.121 164.027
L208.389 166.146
L208.478 166.315
L208.523 166.295
L208.657 165.822
L208.88 163.709
L209.237 157.503
L210.175 139.329
L210.353 138.507
L210.442 138.7
L210.576 139.842
L210.8 144.26
L211.112 156.226
L211.514 181.772
L212.094 235.561
L213.434 366.526
L213.835 385.228
L214.059 388.721
L214.103 388.798
L214.103 388.798
L214.103 388.798
L214.193 388.326
L214.371 384.9
L214.639 373.795
L215.041 345.36
L215.711 277.784
L216.693 180.865
L217.184 151.591
L217.541 141.005
L217.764 138.649
L217.853 138.513
L217.898 138.602
L218.032 139.435
L218.3 143.192
L218.97 157.75
L219.416 164.862
L219.684 166.307
L219.773 166.241
L219.907 165.624
L220.13 163.293
L220.487 156.842
L221.38 139.45
L221.559 138.515
L221.604 138.525
L221.693 138.871
L221.871 140.976
L222.139 148.049
L222.496 165.367
L222.943 199.271
L223.702 277.601
L224.55 359.434
L224.997 383.481
L225.264 388.657
L225.309 388.797
L225.354 388.728
L225.488 387.273
L225.711 380.765
L226.023 363.665
L226.514 321.709
L228.211 161.023
L228.613 144.305
L228.925 138.975
L229.059 138.507
L229.104 138.564
L229.238 139.315
L229.461 142.182
L229.952 152.512
L230.532 163.688
L230.845 166.202
L230.934 166.316
L230.979 166.268
L231.113 165.713
L231.336 163.477
L231.693 157.13
L232.631 139.182
L232.809 138.511
L232.899 138.79
L233.077 140.747
L233.3 146.093
L233.613 159.448
L234.059 190.372
L234.729 256.579
L235.801 361.673
L236.202 383.027
L236.47 388.574
L236.559 388.771
L236.649 388.134
L236.827 384.385
L237.095 372.826
L237.497 343.838
L238.167 275.851
L239.149 179.527
L239.64 150.857
L239.997 140.706
L240.22 138.588
L240.265 138.509
L240.31 138.536
L240.444 139.202
L240.667 141.961
L241.113 151.176
L241.783 164.077
L242.051 166.16
L242.14 166.316
L242.185 166.289
L242.319 165.796
L242.542 163.653
L242.899 157.411
L243.837 139.256
L244.015 138.453
L244.104 138.655
L244.238 139.811
L244.462 144.243
L244.774 156.199
L245.176 181.622
L245.756 234.807
L247.006 354.588
L247.408 373.21
L247.631 376.436
L247.676 376.43
L247.765 375.756
L247.944 371.771
L248.212 359.38
L248.614 327.912
L249.283 252.711
L250.31 140.062
L250.801 109.382
L251.114 100.436
L251.337 98.8208
L251.426 99.1793
L251.605 101.412
L251.917 109.234
L253.39 153.671
L253.614 154.966
L253.703 154.936
L253.837 154.347
L254.06 152.114
L254.551 144.037
L254.998 137.835
L255.176 137.024
L255.266 137.154
L255.399 138.126
L255.623 142.09
L255.935 153.182
L256.337 177.466
L256.873 225.285
L258.391 371.431
L258.748 386.121
L258.971 388.799
L259.06 388.414
L259.239 385.16
L259.507 374.297
L259.909 346.157
L260.578 278.807
L261.605 178.209
L262.096 150.146
L262.453 140.428
L262.677 138.544
L262.721 138.508
L262.766 138.575
L262.9 139.351
L263.168 143.024
L263.748 155.632
L264.239 164.285
L264.507 166.213
L264.596 166.314
L264.641 166.261
L264.775 165.686
L264.998 163.42
L265.355 157.042
L266.293 139.15
L266.471 138.514
L266.561 138.814
L266.739 140.816
L267.007 147.718
L267.364 164.799
L267.811 198.438
L268.57 276.579
L269.418 358.749
L269.864 383.169
L270.132 388.602
L270.177 388.785
L270.221 388.76
L270.311 388.084
L270.489 384.259
L270.757 372.593
L271.159 343.476
L271.873 270.5
L272.811 179.214
L273.302 150.688
L273.659 140.639
L273.882 138.576
L273.927 138.507
L273.972 138.544
L274.105 139.236
L274.329 142.029
L274.775 151.272
L275.445 164.127
L275.713 166.174
L275.802 166.317
L275.847 166.284
L275.981 165.772
L276.204 163.601
L276.561 157.328
L277.498 139.258
L277.677 138.507
L277.766 138.74
L277.9 139.949
L278.123 144.489
L278.436 156.64
L278.838 182.415
L279.418 236.434
L280.758 367.062
L281.159 385.45
L281.383 388.752
L281.427 388.789
L281.516 388.24
L281.695 384.661
L281.963 373.342
L282.365 344.645
L283.034 276.873
L284.017 180.232
L284.508 151.243
L284.865 140.862
L285.088 138.618
L285.177 138.522
L285.311 139.129
L285.534 141.811
L285.981 150.962
L286.651 163.963
L286.918 166.128
L287.052 166.301
L287.186 165.851
L287.41 163.776
L287.767 157.611
L288.749 139.02
L288.883 138.509
L288.927 138.539
L289.061 139.292
L289.24 141.988
L289.508 150.039
L289.865 168.708
L290.356 208.244
L291.428 321.027
L292.008 369.017
L292.365 385.086
L292.588 388.699
L292.633 388.8
L292.678 388.692
L292.812 387.122
L293.035 380.427
L293.347 363.094
L293.838 320.881
L295.535 160.56
L295.937 144.08
L296.249 138.916
L296.383 138.51
L296.472 138.761
L296.651 140.348
L296.963 145.71
L297.99 165.226
L298.214 166.303
L298.303 166.252
L298.437 165.659
L298.66 163.364
L299.017 156.953
L299.91 139.499
L300.133 138.519
L300.223 138.839
L300.401 140.887
L300.669 147.865
L301.026 165.051
L301.473 198.808
L302.232 277.034
L303.08 359.055
L303.526 383.309
L303.794 388.628
L303.839 388.791
L303.883 388.747
L304.017 387.364
L304.241 380.973
L304.553 364.018
L305.044 322.223
L306.785 158.869
L307.187 143.278
L307.455 139.013
L307.589 138.507
L307.633 138.552
L307.767 139.271
L307.991 142.097
L308.437 151.367
L309.062 163.62
L309.375 166.186
L309.464 166.317
L309.509 166.277
L309.642 165.746
L309.866 163.546
L310.223 157.24
L311.16 139.224
L311.339 138.508
L311.428 138.762
L311.607 140.663
L311.83 145.93
L312.143 159.169
L312.544 186.279
L313.169 246.364
L314.375 364.399
L314.777 384.303
L315.044 388.764
L315.089 388.782
L315.178 388.194
L315.357 384.539
L315.625 373.113
L316.027 344.286
L316.696 276.418
L317.678 179.917
L318.17 151.07
L318.527 140.792
L318.75 138.604
L318.839 138.528
L318.973 139.161
L319.196 141.878
L319.643 151.057
L320.313 164.014
L320.58 166.143
L320.67 166.315
L320.714 166.297
L320.848 165.828
L321.071 163.722
L321.429 157.524
L322.411 138.991
L322.545 138.507
L322.589 138.547
L322.723 139.332
L322.902 142.076
L323.17 150.204
L323.527 168.978
L324.018 208.637
L325.938 382.369
L326.206 388.427
L326.295 388.799
L326.34 388.672
L326.473 387.043
L326.697 380.255
L327.009 362.806
L327.5 320.465
L329.197 160.33
L329.599 143.969
L329.911 138.888
L330.045 138.512
L330.134 138.783
L330.313 140.4
L330.625 145.797
L331.652 165.261
L331.875 166.307
L331.965 166.243
L332.099 165.631
L332.322 163.307
L332.679 156.864
L333.572 139.46
L333.75 138.516
L333.795 138.524
L333.884 138.865
L334.063 140.958
L334.331 148.012
L334.688 165.305
L335.134 199.18
L335.893 277.49
L336.742 359.36
L337.188 383.447
L337.456 388.652
L337.501 388.796
L337.545 388.732
L337.679 387.291
L337.902 380.806
L338.215 363.734
L338.706 321.81
L340.403 161.08
L340.804 144.333
L341.117 138.982
L341.251 138.506
L341.295 138.562
L341.429 139.306
L341.653 142.165
L342.144 152.489
L342.724 163.674
L343.037 166.199
L343.126 166.316
L343.17 166.27
L343.304 165.72
L343.528 163.49
L343.885 157.152
L344.822 139.191
L345.001 138.51
L345.09 138.784
L345.269 140.73
L345.492 146.06
L345.805 159.393
L346.251 190.287
L346.921 256.468
L347.992 361.601
L348.394 382.992
L348.662 388.567
L348.751 388.773
L348.84 388.146
L349.019 384.415
L349.287 372.882
L349.689 343.926
L350.358 275.962
L351.34 179.603
L351.832 150.899
L352.189 140.723
L352.412 138.591
L352.501 138.534
L352.635 139.194
L352.858 141.945
L353.305 151.153
L353.974 164.065
L354.242 166.157
L354.332 166.316
L354.376 166.291
L354.51 165.803
L354.733 163.668
L355.091 157.437
L356.028 139.302
L356.207 138.506
L356.296 138.714
L356.43 139.882
L356.653 144.346
L356.966 156.382
L357.367 182.014
L357.948 235.891
L359.287 366.729
L359.689 385.313
L359.912 388.734
L359.957 388.796
L360.046 388.294
L360.225 384.811
L360.493 373.625
L360.894 345.09
L361.564 277.44
L362.546 180.625
L363.037 151.459
L363.394 140.95
L363.618 138.637
L363.707 138.516
L363.796 138.805
L363.975 140.453
L364.287 145.884
L365.269 164.893
L365.537 166.31
L365.627 166.233
L365.761 165.602
L365.984 163.249
L366.386 155.805
L367.234 139.421
L367.412 138.512
L367.502 138.655
L367.636 139.715
L367.859 143.981
L368.171 155.718
L368.573 180.977
L369.154 234.477
L370.538 368.698
L370.895 384.942
L371.118 388.674
L371.163 388.799
L371.207 388.715
L371.341 387.217
L371.564 380.638
L371.877 363.45
L372.368 321.397
L374.064 160.847
L374.466 144.22
L374.779 138.952
L374.913 138.507
L375.002 138.736
L375.181 140.284
L375.493 145.603
L376.52 165.181
L376.743 166.297
L376.832 166.263
L376.966 165.693
L377.19 163.434
L377.547 157.063
L378.484 139.158
L378.663 138.513
L378.752 138.808
L378.931 140.799
L379.199 147.683
L379.556 164.737
L380.002 198.348
L380.761 276.467
L381.609 358.673
L382.056 383.134
L382.324 388.595
L382.368 388.783
L382.413 388.763
L382.502 388.097
L382.681 384.29
L382.949 372.65
L383.35 343.565
L384.02 275.506
L385.002 179.291
L385.493 150.729
L385.851 140.655
L386.074 138.579
L386.118 138.508
L386.163 138.542
L386.297 139.228
L386.52 142.012
L386.967 151.248
L387.636 164.115
L387.904 166.17
L387.994 166.317
L388.038 166.286
L388.172 165.778
L388.395 163.614
L388.752 157.349
L389.69 139.267
L389.869 138.507
L389.958 138.735
L390.092 139.935
L390.315 144.46
L390.628 156.589
L391.029 182.336
L391.61 236.327
L392.949 366.997
L393.351 385.423
L393.574 388.748
L393.619 388.791
L393.708 388.251
L393.887 384.691
L394.154 373.398
L394.556 344.733
L395.226 276.985
L396.208 180.309
L396.699 151.285
L397.056 140.879
L397.28 138.622
L397.369 138.521
L397.458 138.827
L397.637 140.506
L397.994 146.924
L398.887 164.473
L399.155 166.253
L399.244 166.302
L399.378 165.857
L399.601 163.789
L399.958 157.632
L400.94 139.027
L401.074 138.509
L401.119 138.537
L401.253 139.282
L401.432 141.967
L401.699 149.999
L402.057 168.642
L402.548 208.148
L403.574 316.432
L404.199 368.955
L404.557 385.058
L404.78 388.694
L404.824 388.8
L404.869 388.697
L405.003 387.14
L405.226 380.469
L405.539 363.164
L406.03 320.982
L407.726 160.616
L408.128 144.107
L408.441 138.923
L408.575 138.509
L408.664 138.756
L408.842 140.335
L409.155 145.689
L410.182 165.217
L410.405 166.302
L410.494 166.254
L410.628 165.666
L410.851 163.378
L411.209 156.975
L412.102 139.508
L412.325 138.517
L412.414 138.833
L412.593 140.869
L412.86 147.829
L413.218 164.989
L413.664 198.718
L414.423 276.923
L415.271 358.98
L415.718 383.275
L415.986 388.621
L416.03 388.79
L416.075 388.75
L416.209 387.382
L416.432 381.013
L416.745 364.087
L417.236 322.324
L418.977 158.923
L419.379 143.303
L419.646 139.021
L419.78 138.507
L419.825 138.55
L419.959 139.262
L420.182 142.08
L420.629 151.344
L421.254 163.607
L421.566 166.183
L421.655 166.317
L421.7 166.279
L421.834 165.753
L422.057 163.559
L422.414 157.261
L423.352 139.232
L423.531 138.508
L423.62 138.756
L423.798 140.646
L424.022 145.898
L424.334 159.115
L424.736 186.196
L425.361 246.254
L426.566 364.33
L426.968 384.272
L427.236 388.761
L427.281 388.784
L427.37 388.205
L427.549 384.569
L427.816 373.169
L428.218 344.374
L428.888 276.529
L429.87 179.994
L430.361 151.112
L430.718 140.809
L430.941 138.607
L431.031 138.526
L431.165 139.153
L431.388 141.862
L431.834 151.034
L432.504 164.002
L432.772 166.139
L432.861 166.314
L432.906 166.298
L433.04 165.833
L433.263 163.735
L433.62 157.545
L434.602 138.998
L434.736 138.507
L434.781 138.545
L434.915 139.322
L435.093 142.054
L435.361 150.164
L435.718 168.912
L436.21 208.541
L438.129 382.332
L438.397 388.418
L438.486 388.799
L438.531 388.677
L438.665 387.062
L438.888 380.298
L439.201 362.876
L439.692 320.567
L441.388 160.386
L441.79 143.996
L442.103 138.895
L442.237 138.512
L442.326 138.777
L442.504 140.387
L442.817 145.776
L443.844 165.252
L444.067 166.306
L444.156 166.245
L444.29 165.638
L444.513 163.321
L444.871 156.886
L445.763 139.469
L445.942 138.517
L445.987 138.522
L446.076 138.858
L446.255 140.941
L446.522 147.976
L446.88 165.243
L447.326 199.089
L448.085 277.378
L448.933 359.285
L449.38 383.413
L449.648 388.646
L449.692 388.795
L449.737 388.736
L449.871 387.309
L450.094 380.847
L450.406 363.804
L450.898 321.911
L452.594 161.137
L452.996 144.361
L453.308 138.99
L453.442 138.506
L453.487 138.56
L453.621 139.297
L453.844 142.148
L454.335 152.465
L454.916 163.661
L455.228 166.196
L455.317 166.316
L455.362 166.272
L455.496 165.726
L455.719 163.504
L456.076 157.173
L457.014 139.199
L457.192 138.51
L457.282 138.779
L457.46 140.714
L457.684 146.028
L457.996 159.338
L458.442 190.202
L459.112 256.358
L460.184 361.529
L460.585 382.957
L460.853 388.56
L460.943 388.776
L461.032 388.158
L461.21 384.446
L461.478 372.939
L461.88 344.014
L462.55 276.074
L463.532 179.68
L464.023 150.941
L464.38 140.74
L464.603 138.594
L464.693 138.533
L464.827 139.186
L465.05 141.928
L465.496 151.129
L466.166 164.053
L466.434 166.153
L466.523 166.316
L466.568 166.293
L466.702 165.809
L466.925 163.682
L467.282 157.458
L468.22 139.311
L468.398 138.507
L468.487 138.71
L468.621 139.869
L468.845 144.318
L469.157 156.331
L469.559 181.936
L470.139 235.784
L471.479 366.663
L471.88 385.285
L472.104 388.73
L472.148 388.797
L472.238 388.305
L472.416 384.84
L472.684 373.68
L473.086 345.178
L473.756 277.552
L474.738 180.703
L475.229 151.502
L475.586 140.968
L475.809 138.641
L475.898 138.515
L475.988 138.799
L476.166 140.44
L476.479 145.863
L477.461 164.883
L477.729 166.309
L477.818 166.236
L477.952 165.609
L478.175 163.263
L478.532 156.797
L479.425 139.431
L479.604 138.513
L479.693 138.651
L479.827 139.703
L480.05 143.954
L480.363 155.668
L480.765 180.899
L481.345 234.371
L482.729 368.635
L483.086 384.913
L483.309 388.669
L483.354 388.798
L483.399 388.72
L483.533 387.235
L483.756 380.68
L484.068 363.52
L484.559 321.498
L486.256 160.904
L486.658 144.247
L486.97 138.959
L487.104 138.507
L487.149 138.57
L487.283 139.333
L487.506 142.217
L487.997 152.561
L488.577 163.715
L488.89 166.208
L488.979 166.315
L489.024 166.264
L489.158 165.7
L489.381 163.448
L489.738 157.085
L490.676 139.166
L490.854 138.513
L490.944 138.802
L491.122 140.782
L491.345 146.16
L491.658 159.562
L492.104 190.55
L492.774 256.81
L493.846 361.823
L494.247 383.099
L494.515 388.588
L494.56 388.781
L494.605 388.765
L494.694 388.109
L494.872 384.32
L495.14 372.707
L495.542 343.653
L496.212 275.618
L497.194 179.367
L497.685 150.771
L498.042 140.672
L498.265 138.582
L498.31 138.508
L498.355 138.54
L498.489 139.219
L498.712 141.996
L499.158 151.225
L499.828 164.103
L500.096 166.167
L500.185 166.317
L500.23 166.287
L500.364 165.784
L500.587 163.627
L500.944 157.371
L501.882 139.275
L502.06 138.506
L502.149 138.73
L502.283 139.922
L502.507 144.432
L502.819 156.538
L503.221 182.258
L503.801 236.22
L505.141 366.931
L505.542 385.396
L505.766 388.745
L505.81 388.792
L505.9 388.261
L506.078 384.72
L506.346 373.453
L506.748 344.82
L507.417 277.096
L508.4 180.386
L508.891 151.327
L509.248 140.896
L509.471 138.625
L509.56 138.52
L509.65 138.822
L509.828 140.493
L510.141 145.95
L511.123 164.923
L511.346 166.251
L511.435 166.303
L511.569 165.863
L511.793 163.802
L512.15 157.654
L513.132 139.034
L513.266 138.51
L513.311 138.535
L513.444 139.273
L513.623 141.946
L513.891 149.959
L514.248 168.576
L514.739 208.052
L515.766 316.329
L516.391 368.892
L516.748 385.03
L516.971 388.69
L517.016 388.8
L517.061 388.702
L517.195 387.159
L517.418 380.51
L517.73 363.234
L518.221 321.084
L518.4 302.691
L518.4 302.691" style="fill:none;stroke:#0000ff;stroke-linecap:square;"/>
   </g>
   <g id="line2d_2">
    <path clip-path="url(#p7ff5b81e1d)" d="
M72 98.8208
L518.4 98.8208" style="fill:none;stroke:#ff0000;stroke-linecap:square;"/>
   </g>
   <g id="matplotlib.axis_1">
    <g id="xtick_1">
     <g id="line2d_3">
      <defs>
       <path d="
M0 0
L0 -4" id="m93b0483c22" style="stroke:#000000;stroke-width:0.5;"/>
      </defs>
      <g>
       <use style="stroke:#000000;stroke-width:0.5;" x="72.0" xlink:href="#m93b0483c22" y="388.8"/>
      </g>
     </g>
     <g id="line2d_4">
      <defs>
       <path d="
M0 0
L0 4" id="m741efc42ff" style="stroke:#000000;stroke-width:0.5;"/>
      </defs>
      <g>
       <use style="stroke:#000000;stroke-width:0.5;" x="72.0" xlink:href="#m741efc42ff" y="43.2"/>
      </g>
     </g>
     <g id="text_1">
      <!-- −100 -->
      <defs>
       <path d="
M10.5938 35.5
L73.1875 35.5
L73.1875 27.2031
L10.5938 27.2031
z
" id="BitstreamVeraSans-Roman-2212"/>
       <path d="
M31.7812 66.4062
Q24.1719 66.4062 20.3281 58.9062
Q16.5 51.4219 16.5 36.375
Q16.5 21.3906 20.3281 13.8906
Q24.1719 6.39062 31.7812 6.39062
Q39.4531 6.39062 43.2812 13.8906
Q47.125 21.3906 47.125 36.375
Q47.125 51.4219 43.2812 58.9062
Q39.4531 66.4062 31.7812 66.4062
M31.7812 74.2188
Q44.0469 74.2188 50.5156 64.5156
Q56.9844 54.8281 56.9844 36.375
Q56.9844 17.9688 50.5156 8.26562
Q44.0469 -1.42188 31.7812 -1.42188
Q19.5312 -1.42188 13.0625 8.26562
Q6.59375 17.9688 6.59375 36.375
Q6.59375 54.8281 13.0625 64.5156
Q19.5312 74.2188 31.7812 74.2188" id="BitstreamVeraSans-Roman-30"/>
       <path d="
M12.4062 8.29688
L28.5156 8.29688
L28.5156 63.9219
L10.9844 60.4062
L10.9844 69.3906
L28.4219 72.9062
L38.2812 72.9062
L38.2812 8.29688
L54.3906 8.29688
L54.3906 0
L12.4062 0
z
" id="BitstreamVeraSans-Roman-31"/>
      </defs>
      <g transform="translate(56.55375 401.918125)scale(0.12 -0.12)">
       <use xlink:href="#BitstreamVeraSans-Roman-2212"/>
       <use x="83.7890625" xlink:href="#BitstreamVeraSans-Roman-31"/>
       <use x="147.412109375" xlink:href="#BitstreamVeraSans-Roman-30"/>
       <use x="211.03515625" xlink:href="#BitstreamVeraSans-Roman-30"/>
      </g>
     </g>
    </g>
    <g id="xtick_2">
     <g id="line2d_5">
      <g>
       <use style="stroke:#000000;stroke-width:0.5;" x="161.28" xlink:href="#m93b0483c22" y="388.8"/>
      </g>
     </g>
     <g id="line2d_6">
      <g>
       <use style="stroke:#000000;stroke-width:0.5;" x="161.28" xlink:href="#m741efc42ff" y="43.2"/>
      </g>
     </g>
     <g id="text_2">
      <!-- −50 -->
      <defs>
       <path d="
M10.7969 72.9062
L49.5156 72.9062
L49.5156 64.5938
L19.8281 64.5938
L19.8281 46.7344
Q21.9688 47.4688 24.1094 47.8281
Q26.2656 48.1875 28.4219 48.1875
Q40.625 48.1875 47.75 41.5
Q54.8906 34.8125 54.8906 23.3906
Q54.8906 11.625 47.5625 5.09375
Q40.2344 -1.42188 26.9062 -1.42188
Q22.3125 -1.42188 17.5469 -0.640625
Q12.7969 0.140625 7.71875 1.70312
L7.71875 11.625
Q12.1094 9.23438 16.7969 8.0625
Q21.4844 6.89062 26.7031 6.89062
Q35.1562 6.89062 40.0781 11.3281
Q45.0156 15.7656 45.0156 23.3906
Q45.0156 31 40.0781 35.4375
Q35.1562 39.8906 26.7031 39.8906
Q22.75 39.8906 18.8125 39.0156
Q14.8906 38.1406 10.7969 36.2812
z
" id="BitstreamVeraSans-Roman-35"/>
      </defs>
      <g transform="translate(149.65125 401.918125)scale(0.12 -0.12)">
       <use xlink:href="#BitstreamVeraSans-Roman-2212"/>
       <use x="83.7890625" xlink:href="#BitstreamVeraSans-Roman-35"/>
       <use x="147.412109375" xlink:href="#BitstreamVeraSans-Roman-30"/>
      </g>
     </g>
    </g>
    <g id="xtick_3">
     <g id="line2d_7">
      <g>
       <use style="stroke:#000000;stroke-width:0.5;" x="250.56" xlink:href="#m93b0483c22" y="388.8"/>
      </g>
     </g>
     <g id="line2d_8">
      <g>
       <use style="stroke:#000000;stroke-width:0.5;" x="250.56" xlink:href="#m741efc42ff" y="43.2"/>
      </g>
     </g>
     <g id="text_3">
      <!-- 0 -->
      <g transform="translate(247.5365625 401.918125)scale(0.12 -0.12)">
       <use xlink:href="#BitstreamVeraSans-Roman-30"/>
      </g>
     </g>
    </g>
    <g id="xtick_4">
     <g id="line2d_9">
      <g>
       <use style="stroke:#000000;stroke-width:0.5;" x="339.84" xlink:href="#m93b0483c22" y="388.8"/>
      </g>
     </g>
     <g id="line2d_10">
      <g>
       <use style="stroke:#000000;stroke-width:0.5;" x="339.84" xlink:href="#m741efc42ff" y="43.2"/>
      </g>
     </g>
     <g id="text_4">
      <!-- 50 -->
      <g transform="translate(333.0665625 401.918125)scale(0.12 -0.12)">
       <use xlink:href="#BitstreamVeraSans-Roman-35"/>
       <use x="63.623046875" xlink:href="#BitstreamVeraSans-Roman-30"/>
      </g>
     </g>
    </g>
    <g id="xtick_5">
     <g id="line2d_11">
      <g>
       <use style="stroke:#000000;stroke-width:0.5;" x="429.12" xlink:href="#m93b0483c22" y="388.8"/>
      </g>
     </g>
     <g id="line2d_12">
      <g>
       <use style="stroke:#000000;stroke-width:0.5;" x="429.12" xlink:href="#m741efc42ff" y="43.2"/>
      </g>
     </g>
     <g id="text_5">
      <!-- 100 -->
      <g transform="translate(418.725 401.918125)scale(0.12 -0.12)">
       <use xlink:href="#BitstreamVeraSans-Roman-31"/>
       <use x="63.623046875" xlink:href="#BitstreamVeraSans-Roman-30"/>
       <use x="127.24609375" xlink:href="#BitstreamVeraSans-Roman-30"/>
      </g>
     </g>
    </g>
    <g id="xtick_6">
     <g id="line2d_13">
      <g>
       <use style="stroke:#000000;stroke-width:0.5;" x="518.4" xlink:href="#m93b0483c22" y="388.8"/>
      </g>
     </g>
     <g id="line2d_14">
      <g>
       <use style="stroke:#000000;stroke-width:0.5;" x="518.4" xlink:href="#m741efc42ff" y="43.2"/>
      </g>
     </g>
     <g id="text_6">
      <!-- 150 -->
      <g transform="translate(508.005 401.918125)scale(0.12 -0.12)">
       <use xlink:href="#BitstreamVeraSans-Roman-31"/>
       <use x="63.623046875" xlink:href="#BitstreamVeraSans-Roman-35"/>
       <use x="127.24609375" xlink:href="#BitstreamVeraSans-Roman-30"/>
      </g>
     </g>
    </g>
   </g>
   <g id="matplotlib.axis_2">
    <g id="ytick_1">
     <g id="line2d_15">
      <defs>
       <path d="
M0 0
L4 0" id="m728421d6d4" style="stroke:#000000;stroke-width:0.5;"/>
      </defs>
      <g>
       <use style="stroke:#000000;stroke-width:0.5;" x="72.0" xlink:href="#m728421d6d4" y="388.8"/>
      </g>
     </g>
     <g id="line2d_16">
      <defs>
       <path d="
M0 0
L-4 0" id="mcb0005524f" style="stroke:#000000;stroke-width:0.5;"/>
      </defs>
      <g>
       <use style="stroke:#000000;stroke-width:0.5;" x="518.4" xlink:href="#mcb0005524f" y="388.8"/>
      </g>
     </g>
     <g id="text_7">
      <!-- −1.0 -->
      <defs>
       <path d="
M10.6875 12.4062
L21 12.4062
L21 0
L10.6875 0
z
" id="BitstreamVeraSans-Roman-2e"/>
      </defs>
      <g transform="translate(40.92875 392.11125)scale(0.12 -0.12)">
       <use xlink:href="#BitstreamVeraSans-Roman-2212"/>
       <use x="83.7890625" xlink:href="#BitstreamVeraSans-Roman-31"/>
       <use x="147.412109375" xlink:href="#BitstreamVeraSans-Roman-2e"/>
       <use x="179.19921875" xlink:href="#BitstreamVeraSans-Roman-30"/>
      </g>
     </g>
    </g>
    <g id="ytick_2">
     <g id="line2d_17">
      <g>
       <use style="stroke:#000000;stroke-width:0.5;" x="72.0" xlink:href="#m728421d6d4" y="333.179190949"/>
      </g>
     </g>
     <g id="line2d_18">
      <g>
       <use style="stroke:#000000;stroke-width:0.5;" x="518.4" xlink:href="#mcb0005524f" y="333.179190949"/>
      </g>
     </g>
     <g id="text_8">
      <!-- −0.5 -->
      <g transform="translate(41.18 336.490440949)scale(0.12 -0.12)">
       <use xlink:href="#BitstreamVeraSans-Roman-2212"/>
       <use x="83.7890625" xlink:href="#BitstreamVeraSans-Roman-30"/>
       <use x="147.412109375" xlink:href="#BitstreamVeraSans-Roman-2e"/>
       <use x="179.19921875" xlink:href="#BitstreamVeraSans-Roman-35"/>
      </g>
     </g>
    </g>
    <g id="ytick_3">
     <g id="line2d_19">
      <g>
       <use style="stroke:#000000;stroke-width:0.5;" x="72.0" xlink:href="#m728421d6d4" y="277.558381899"/>
      </g>
     </g>
     <g id="line2d_20">
      <g>
       <use style="stroke:#000000;stroke-width:0.5;" x="518.4" xlink:href="#mcb0005524f" y="277.558381899"/>
      </g>
     </g>
     <g id="text_9">
      <!-- 0.0 -->
      <g transform="translate(50.504375 280.869631899)scale(0.12 -0.12)">
       <use xlink:href="#BitstreamVeraSans-Roman-30"/>
       <use x="63.623046875" xlink:href="#BitstreamVeraSans-Roman-2e"/>
       <use x="95.41015625" xlink:href="#BitstreamVeraSans-Roman-30"/>
      </g>
     </g>
    </g>
    <g id="ytick_4">
     <g id="line2d_21">
      <g>
       <use style="stroke:#000000;stroke-width:0.5;" x="72.0" xlink:href="#m728421d6d4" y="221.937572848"/>
      </g>
     </g>
     <g id="line2d_22">
      <g>
       <use style="stroke:#000000;stroke-width:0.5;" x="518.4" xlink:href="#mcb0005524f" y="221.937572848"/>
      </g>
     </g>
     <g id="text_10">
      <!-- 0.5 -->
      <g transform="translate(50.755625 225.248822848)scale(0.12 -0.12)">
       <use xlink:href="#BitstreamVeraSans-Roman-30"/>
       <use x="63.623046875" xlink:href="#BitstreamVeraSans-Roman-2e"/>
       <use x="95.41015625" xlink:href="#BitstreamVeraSans-Roman-35"/>
      </g>
     </g>
    </g>
    <g id="ytick_5">
     <g id="line2d_23">
      <g>
       <use style="stroke:#000000;stroke-width:0.5;" x="72.0" xlink:href="#m728421d6d4" y="166.316763798"/>
      </g>
     </g>
     <g id="line2d_24">
      <g>
       <use style="stroke:#000000;stroke-width:0.5;" x="518.4" xlink:href="#mcb0005524f" y="166.316763798"/>
      </g>
     </g>
     <g id="text_11">
      <!-- 1.0 -->
      <g transform="translate(51.03125 169.628013798)scale(0.12 -0.12)">
       <use xlink:href="#BitstreamVeraSans-Roman-31"/>
       <use x="63.623046875" xlink:href="#BitstreamVeraSans-Roman-2e"/>
       <use x="95.41015625" xlink:href="#BitstreamVeraSans-Roman-30"/>
      </g>
     </g>
    </g>
    <g id="ytick_6">
     <g id="line2d_25">
      <g>
       <use style="stroke:#000000;stroke-width:0.5;" x="72.0" xlink:href="#m728421d6d4" y="110.695954747"/>
      </g>
     </g>
     <g id="line2d_26">
      <g>
       <use style="stroke:#000000;stroke-width:0.5;" x="518.4" xlink:href="#mcb0005524f" y="110.695954747"/>
      </g>
     </g>
     <g id="text_12">
      <!-- 1.5 -->
      <g transform="translate(51.2825 114.007204747)scale(0.12 -0.12)">
       <use xlink:href="#BitstreamVeraSans-Roman-31"/>
       <use x="63.623046875" xlink:href="#BitstreamVeraSans-Roman-2e"/>
       <use x="95.41015625" xlink:href="#BitstreamVeraSans-Roman-35"/>
      </g>
     </g>
    </g>
    <g id="ytick_7">
     <g id="line2d_27">
      <g>
       <use style="stroke:#000000;stroke-width:0.5;" x="72.0" xlink:href="#m728421d6d4" y="55.0751456968"/>
      </g>
     </g>
     <g id="line2d_28">
      <g>
       <use style="stroke:#000000;stroke-width:0.5;" x="518.4" xlink:href="#mcb0005524f" y="55.0751456968"/>
      </g>
     </g>
     <g id="text_13">
      <!-- 2.0 -->
      <defs>
       <path d="
M19.1875 8.29688
L53.6094 8.29688
L53.6094 0
L7.32812 0
L7.32812 8.29688
Q12.9375 14.1094 22.625 23.8906
Q32.3281 33.6875 34.8125 36.5312
Q39.5469 41.8438 41.4219 45.5312
Q43.3125 49.2188 43.3125 52.7812
Q43.3125 58.5938 39.2344 62.25
Q35.1562 65.9219 28.6094 65.9219
Q23.9688 65.9219 18.8125 64.3125
Q13.6719 62.7031 7.8125 59.4219
L7.8125 69.3906
Q13.7656 71.7812 18.9375 73
Q24.125 74.2188 28.4219 74.2188
Q39.75 74.2188 46.4844 68.5469
Q53.2188 62.8906 53.2188 53.4219
Q53.2188 48.9219 51.5312 44.8906
Q49.8594 40.875 45.4062 35.4062
Q44.1875 33.9844 37.6406 27.2188
Q31.1094 20.4531 19.1875 8.29688" id="BitstreamVeraSans-Roman-32"/>
      </defs>
      <g transform="translate(50.5925 58.3863956968)scale(0.12 -0.12)">
       <use xlink:href="#BitstreamVeraSans-Roman-32"/>
       <use x="63.623046875" xlink:href="#BitstreamVeraSans-Roman-2e"/>
       <use x="95.41015625" xlink:href="#BitstreamVeraSans-Roman-30"/>
      </g>
     </g>
    </g>
   </g>
   <g id="patch_3">
    <path d="
M72 43.2
L518.4 43.2" style="fill:none;stroke:#000000;"/>
   </g>
   <g id="patch_4">
    <path d="
M518.4 388.8
L518.4 43.2" style="fill:none;stroke:#000000;"/>
   </g>
   <g id="patch_5">
    <path d="
M72 388.8
L518.4 388.8" style="fill:none;stroke:#000000;"/>
   </g>
   <g id="patch_6">
    <path d="
M72 388.8
L72 43.2" style="fill:none;stroke:#000000;"/>
   </g>
   <g id="text_14">
    <!-- Dataset and Solution -->
    <defs>
     <path id="BitstreamVeraSans-Roman-20"/>
     <path d="
M54.8906 33.0156
L54.8906 0
L45.9062 0
L45.9062 32.7188
Q45.9062 40.4844 42.875 44.3281
Q39.8438 48.1875 33.7969 48.1875
Q26.5156 48.1875 22.3125 43.5469
Q18.1094 38.9219 18.1094 30.9062
L18.1094 0
L9.07812 0
L9.07812 54.6875
L18.1094 54.6875
L18.1094 46.1875
Q21.3438 51.125 25.7031 53.5625
Q30.0781 56 35.7969 56
Q45.2188 56 50.0469 50.1719
Q54.8906 44.3438 54.8906 33.0156" id="BitstreamVeraSans-Roman-6e"/>
     <path d="
M30.6094 48.3906
Q23.3906 48.3906 19.1875 42.75
Q14.9844 37.1094 14.9844 27.2969
Q14.9844 17.4844 19.1562 11.8438
Q23.3438 6.20312 30.6094 6.20312
Q37.7969 6.20312 41.9844 11.8594
Q46.1875 17.5312 46.1875 27.2969
Q46.1875 37.0156 41.9844 42.7031
Q37.7969 48.3906 30.6094 48.3906
M30.6094 56
Q42.3281 56 49.0156 48.375
Q55.7188 40.7656 55.7188 27.2969
Q55.7188 13.875 49.0156 6.21875
Q42.3281 -1.42188 30.6094 -1.42188
Q18.8438 -1.42188 12.1719 6.21875
Q5.51562 13.875 5.51562 27.2969
Q5.51562 40.7656 12.1719 48.375
Q18.8438 56 30.6094 56" id="BitstreamVeraSans-Roman-6f"/>
     <path d="
M9.42188 75.9844
L18.4062 75.9844
L18.4062 0
L9.42188 0
z
" id="BitstreamVeraSans-Roman-6c"/>
     <path d="
M19.6719 64.7969
L19.6719 8.10938
L31.5938 8.10938
Q46.6875 8.10938 53.6875 14.9375
Q60.6875 21.7812 60.6875 36.5312
Q60.6875 51.1719 53.6875 57.9844
Q46.6875 64.7969 31.5938 64.7969
z

M9.8125 72.9062
L30.0781 72.9062
Q51.2656 72.9062 61.1719 64.0938
Q71.0938 55.2812 71.0938 36.5312
Q71.0938 17.6719 61.125 8.82812
Q51.1719 0 30.0781 0
L9.8125 0
z
" id="BitstreamVeraSans-Roman-44"/>
     <path d="
M9.42188 54.6875
L18.4062 54.6875
L18.4062 0
L9.42188 0
z

M9.42188 75.9844
L18.4062 75.9844
L18.4062 64.5938
L9.42188 64.5938
z
" id="BitstreamVeraSans-Roman-69"/>
     <path d="
M56.2031 29.5938
L56.2031 25.2031
L14.8906 25.2031
Q15.4844 15.9219 20.4844 11.0625
Q25.4844 6.20312 34.4219 6.20312
Q39.5938 6.20312 44.4531 7.46875
Q49.3125 8.73438 54.1094 11.2812
L54.1094 2.78125
Q49.2656 0.734375 44.1875 -0.34375
Q39.1094 -1.42188 33.8906 -1.42188
Q20.7969 -1.42188 13.1562 6.1875
Q5.51562 13.8125 5.51562 26.8125
Q5.51562 40.2344 12.7656 48.1094
Q20.0156 56 32.3281 56
Q43.3594 56 49.7812 48.8906
Q56.2031 41.7969 56.2031 29.5938
M47.2188 32.2344
Q47.125 39.5938 43.0938 43.9844
Q39.0625 48.3906 32.4219 48.3906
Q24.9062 48.3906 20.3906 44.1406
Q15.875 39.8906 15.1875 32.1719
z
" id="BitstreamVeraSans-Roman-65"/>
     <path d="
M45.4062 46.3906
L45.4062 75.9844
L54.3906 75.9844
L54.3906 0
L45.4062 0
L45.4062 8.20312
Q42.5781 3.32812 38.25 0.953125
Q33.9375 -1.42188 27.875 -1.42188
Q17.9688 -1.42188 11.7344 6.48438
Q5.51562 14.4062 5.51562 27.2969
Q5.51562 40.1875 11.7344 48.0938
Q17.9688 56 27.875 56
Q33.9375 56 38.25 53.625
Q42.5781 51.2656 45.4062 46.3906
M14.7969 27.2969
Q14.7969 17.3906 18.875 11.75
Q22.9531 6.10938 30.0781 6.10938
Q37.2031 6.10938 41.2969 11.75
Q45.4062 17.3906 45.4062 27.2969
Q45.4062 37.2031 41.2969 42.8438
Q37.2031 48.4844 30.0781 48.4844
Q22.9531 48.4844 18.875 42.8438
Q14.7969 37.2031 14.7969 27.2969" id="BitstreamVeraSans-Roman-64"/>
     <path d="
M18.3125 70.2188
L18.3125 54.6875
L36.8125 54.6875
L36.8125 47.7031
L18.3125 47.7031
L18.3125 18.0156
Q18.3125 11.3281 20.1406 9.42188
Q21.9688 7.51562 27.5938 7.51562
L36.8125 7.51562
L36.8125 0
L27.5938 0
Q17.1875 0 13.2344 3.875
Q9.28125 7.76562 9.28125 18.0156
L9.28125 47.7031
L2.6875 47.7031
L2.6875 54.6875
L9.28125 54.6875
L9.28125 70.2188
z
" id="BitstreamVeraSans-Roman-74"/>
     <path d="
M8.5 21.5781
L8.5 54.6875
L17.4844 54.6875
L17.4844 21.9219
Q17.4844 14.1562 20.5 10.2656
Q23.5312 6.39062 29.5938 6.39062
Q36.8594 6.39062 41.0781 11.0312
Q45.3125 15.6719 45.3125 23.6875
L45.3125 54.6875
L54.2969 54.6875
L54.2969 0
L45.3125 0
L45.3125 8.40625
Q42.0469 3.42188 37.7188 1
Q33.4062 -1.42188 27.6875 -1.42188
Q18.2656 -1.42188 13.375 4.4375
Q8.5 10.2969 8.5 21.5781" id="BitstreamVeraSans-Roman-75"/>
     <path d="
M34.2812 27.4844
Q23.3906 27.4844 19.1875 25
Q14.9844 22.5156 14.9844 16.5
Q14.9844 11.7188 18.1406 8.90625
Q21.2969 6.10938 26.7031 6.10938
Q34.1875 6.10938 38.7031 11.4062
Q43.2188 16.7031 43.2188 25.4844
L43.2188 27.4844
z

M52.2031 31.2031
L52.2031 0
L43.2188 0
L43.2188 8.29688
Q40.1406 3.32812 35.5469 0.953125
Q30.9531 -1.42188 24.3125 -1.42188
Q15.9219 -1.42188 10.9531 3.29688
Q6 8.01562 6 15.9219
Q6 25.1406 12.1719 29.8281
Q18.3594 34.5156 30.6094 34.5156
L43.2188 34.5156
L43.2188 35.4062
Q43.2188 41.6094 39.1406 45
Q35.0625 48.3906 27.6875 48.3906
Q23 48.3906 18.5469 47.2656
Q14.1094 46.1406 10.0156 43.8906
L10.0156 52.2031
Q14.9375 54.1094 19.5781 55.0469
Q24.2188 56 28.6094 56
Q40.4844 56 46.3438 49.8438
Q52.2031 43.7031 52.2031 31.2031" id="BitstreamVeraSans-Roman-61"/>
     <path d="
M44.2812 53.0781
L44.2812 44.5781
Q40.4844 46.5312 36.375 47.5
Q32.2812 48.4844 27.875 48.4844
Q21.1875 48.4844 17.8438 46.4375
Q14.5 44.3906 14.5 40.2812
Q14.5 37.1562 16.8906 35.375
Q19.2812 33.5938 26.5156 31.9844
L29.5938 31.2969
Q39.1562 29.25 43.1875 25.5156
Q47.2188 21.7812 47.2188 15.0938
Q47.2188 7.46875 41.1875 3.01562
Q35.1562 -1.42188 24.6094 -1.42188
Q20.2188 -1.42188 15.4531 -0.5625
Q10.6875 0.296875 5.42188 2
L5.42188 11.2812
Q10.4062 8.6875 15.2344 7.39062
Q20.0625 6.10938 24.8125 6.10938
Q31.1562 6.10938 34.5625 8.28125
Q37.9844 10.4531 37.9844 14.4062
Q37.9844 18.0625 35.5156 20.0156
Q33.0625 21.9688 24.7031 23.7812
L21.5781 24.5156
Q13.2344 26.2656 9.51562 29.9062
Q5.8125 33.5469 5.8125 39.8906
Q5.8125 47.6094 11.2812 51.7969
Q16.75 56 26.8125 56
Q31.7812 56 36.1719 55.2656
Q40.5781 54.5469 44.2812 53.0781" id="BitstreamVeraSans-Roman-73"/>
     <path d="
M53.5156 70.5156
L53.5156 60.8906
Q47.9062 63.5781 42.9219 64.8906
Q37.9375 66.2188 33.2969 66.2188
Q25.25 66.2188 20.875 63.0938
Q16.5 59.9688 16.5 54.2031
Q16.5 49.3594 19.4062 46.8906
Q22.3125 44.4375 30.4219 42.9219
L36.375 41.7031
Q47.4062 39.5938 52.6562 34.2969
Q57.9062 29 57.9062 20.125
Q57.9062 9.51562 50.7969 4.04688
Q43.7031 -1.42188 29.9844 -1.42188
Q24.8125 -1.42188 18.9688 -0.25
Q13.1406 0.921875 6.89062 3.21875
L6.89062 13.375
Q12.8906 10.0156 18.6562 8.29688
Q24.4219 6.59375 29.9844 6.59375
Q38.4219 6.59375 43.0156 9.90625
Q47.6094 13.2344 47.6094 19.3906
Q47.6094 24.75 44.3125 27.7812
Q41.0156 30.8125 33.5 32.3281
L27.4844 33.5
Q16.4531 35.6875 11.5156 40.375
Q6.59375 45.0625 6.59375 53.4219
Q6.59375 63.0938 13.4062 68.6562
Q20.2188 74.2188 32.1719 74.2188
Q37.3125 74.2188 42.625 73.2812
Q47.9531 72.3594 53.5156 70.5156" id="BitstreamVeraSans-Roman-53"/>
    </defs>
    <g transform="translate(220.1625 38.2)scale(0.144 -0.144)">
     <use xlink:href="#BitstreamVeraSans-Roman-44"/>
     <use x="77.001953125" xlink:href="#BitstreamVeraSans-Roman-61"/>
     <use x="138.28125" xlink:href="#BitstreamVeraSans-Roman-74"/>
     <use x="177.490234375" xlink:href="#BitstreamVeraSans-Roman-61"/>
     <use x="238.76953125" xlink:href="#BitstreamVeraSans-Roman-73"/>
     <use x="290.869140625" xlink:href="#BitstreamVeraSans-Roman-65"/>
     <use x="352.392578125" xlink:href="#BitstreamVeraSans-Roman-74"/>
     <use x="391.6015625" xlink:href="#BitstreamVeraSans-Roman-20"/>
     <use x="423.388671875" xlink:href="#BitstreamVeraSans-Roman-61"/>
     <use x="484.66796875" xlink:href="#BitstreamVeraSans-Roman-6e"/>
     <use x="548.046875" xlink:href="#BitstreamVeraSans-Roman-64"/>
     <use x="611.5234375" xlink:href="#BitstreamVeraSans-Roman-20"/>
     <use x="643.310546875" xlink:href="#BitstreamVeraSans-Roman-53"/>
     <use x="706.787109375" xlink:href="#BitstreamVeraSans-Roman-6f"/>
     <use x="767.96875" xlink:href="#BitstreamVeraSans-Roman-6c"/>
     <use x="795.751953125" xlink:href="#BitstreamVeraSans-Roman-75"/>
     <use x="859.130859375" xlink:href="#BitstreamVeraSans-Roman-74"/>
     <use x="898.33984375" xlink:href="#BitstreamVeraSans-Roman-69"/>
     <use x="926.123046875" xlink:href="#BitstreamVeraSans-Roman-6f"/>
     <use x="987.3046875" xlink:href="#BitstreamVeraSans-Roman-6e"/>
    </g>
   </g>
  </g>
 </g>
 <defs>
  <clipPath id="p7ff5b81e1d">
   <rect height="345.6" width="446.4" x="72.0" y="43.2"/>
  </clipPath>
 </defs>
</svg>
