<?xml version="1.0" encoding="UTF-8" standalone="no"?>
<!DOCTYPE svg PUBLIC "-//W3C//DTD SVG 1.0//EN" "http://www.w3.org/TR/2001/PR-SVG-20010719/DTD/svg10.dtd">
<svg width="90cm" height="36cm" viewBox="19 50 1799 709" xmlns="http://www.w3.org/2000/svg" xmlns:xlink="http://www.w3.org/1999/xlink">
  <g>
    <polyline style="fill: none; fill-opacity:0; stroke-width: 2; stroke: #000000" points="135,151 145,151 269,151 274.528,151 "/>
    <polyline style="fill: none; fill-opacity:0; stroke-width: 2; stroke: #000000" points="266.764,156 276.764,151 266.764,146 "/>
    <text font-size="12.7998" style="fill: #000000;text-anchor:middle;font-family:sans-serif;font-style:normal;font-weight:normal" x="197" y="141">[prompt is not None]</text>
  </g>
  <ellipse style="fill: #000000" cx="40" cy="151" rx="10" ry="10"/>
  <g>
    <polygon style="fill: #ffffff" points="95,151 115,131 135,151 115,171 "/>
    <polygon style="fill: none; fill-opacity:0; stroke-width: 2; stroke: #000000" points="95,151 115,131 135,151 115,171 "/>
  </g>
  <g>
    <polyline style="fill: none; fill-opacity:0; stroke-width: 2; stroke: #000000" points="50,151 60,151 85,151 90.5279,151 "/>
    <polyline style="fill: none; fill-opacity:0; stroke-width: 2; stroke: #000000" points="82.7639,156 92.7639,151 82.7639,146 "/>
  </g>
  <g>
    <polyline style="fill: none; fill-opacity:0; stroke-width: 2; stroke: #000000" points="115,171 115,273.5 157.37,273.5 "/>
    <polyline style="fill: none; fill-opacity:0; stroke-width: 2; stroke: #000000" points="149.606,278.5 159.606,273.5 149.606,268.5 "/>
    <text font-size="12.7998" style="fill: #000000;text-anchor:middle;font-family:sans-serif;font-style:normal;font-weight:normal" x="183" y="204.25">[prompt is None]</text>
  </g>
  <g>
    <polygon style="fill: #ffffff" points="579.124,151 599.124,131 619.124,151 599.124,171 "/>
    <polygon style="fill: none; fill-opacity:0; stroke-width: 2; stroke: #000000" points="579.124,151 599.124,131 619.124,151 599.124,171 "/>
  </g>
  <g>
    <polygon style="fill: #ffffff" points="721.374,151 741.374,131 761.374,151 741.374,171 "/>
    <polygon style="fill: none; fill-opacity:0; stroke-width: 2; stroke: #000000" points="721.374,151 741.374,131 761.374,151 741.374,171 "/>
  </g>
  <g>
    <polyline style="fill: none; fill-opacity:0; stroke-width: 2; stroke: #000000" points="619.124,151 629.124,151 711.374,151 716.902,151 "/>
    <polyline style="fill: none; fill-opacity:0; stroke-width: 2; stroke: #000000" points="709.138,156 719.138,151 709.138,146 "/>
    <text font-size="12.7998" style="fill: #000000;text-anchor:middle;font-family:sans-serif;font-style:normal;font-weight:normal" x="660.25" y="141">[else]</text>
  </g>
  <g>
    <rect style="fill: #ffffff" x="882.62" y="133" width="89.025" height="36" rx="20" ry="20"/>
    <rect style="fill: none; fill-opacity:0; stroke-width: 2; stroke: #000000" x="882.62" y="133" width="89.025" height="36" rx="20" ry="20"/>
    <text font-size="12.8" style="fill: #000000;text-anchor:middle;font-family:sans-serif;font-style:normal;font-weight:normal" x="927.133" y="154.9">
      <tspan x="927.133" y="154.9">Write login</tspan>
    </text>
  </g>
  <g>
    <polyline style="fill: none; fill-opacity:0; stroke-width: 2; stroke: #000000" points="761.374,151 805,151 805,151 878.148,151 "/>
    <polyline style="fill: none; fill-opacity:0; stroke-width: 2; stroke: #000000" points="870.384,156 880.384,151 870.384,146 "/>
    <text font-size="12.7998" style="fill: #000000;text-anchor:middle;font-family:sans-serif;font-style:normal;font-weight:normal" x="815.5" y="141">[LoginMatch]</text>
  </g>
  <g>
    <polyline style="fill: none; fill-opacity:0; stroke-width: 2; stroke: #000000" points="971.645,151 981.645,151 1023,151 1028.53,151 "/>
    <polyline style="fill: none; fill-opacity:0; stroke-width: 2; stroke: #000000" points="1020.76,156 1030.76,151 1020.76,146 "/>
  </g>
  <g>
    <polygon style="fill: #ffffff" points="279,151 299,131 319,151 299,171 "/>
    <polygon style="fill: none; fill-opacity:0; stroke-width: 2; stroke: #000000" points="279,151 299,131 319,151 299,171 "/>
  </g>
  <g>
    <polyline style="fill: none; fill-opacity:0; stroke-width: 2; stroke: #000000" points="241.842,273.5 299,273.5 299,175.472 "/>
    <polyline style="fill: none; fill-opacity:0; stroke-width: 2; stroke: #000000" points="304,183.236 299,173.236 294,183.236 "/>
  </g>
  <g>
    <polyline style="fill: none; fill-opacity:0; stroke-width: 2; stroke: #000000" points="504.05,151 514.05,151 569.124,151 574.652,151 "/>
    <polyline style="fill: none; fill-opacity:0; stroke-width: 2; stroke: #000000" points="566.888,156 576.888,151 566.888,146 "/>
  </g>
  <g>
    <polygon style="fill: #ffffff" points="579.126,262.708 599.126,242.708 619.126,262.708 599.126,282.708 "/>
    <polygon style="fill: none; fill-opacity:0; stroke-width: 2; stroke: #000000" points="579.126,262.708 599.126,242.708 619.126,262.708 599.126,282.708 "/>
  </g>
  <g>
    <polyline style="fill: none; fill-opacity:0; stroke-width: 2; stroke: #000000" points="599.124,171 599.124,209.5 599.126,209.5 599.126,238.236 "/>
    <polyline style="fill: none; fill-opacity:0; stroke-width: 2; stroke: #000000" points="594.126,230.472 599.126,240.472 604.126,230.472 "/>
    <text font-size="12.7998" style="fill: #000000;text-anchor:middle;font-family:sans-serif;font-style:normal;font-weight:normal" x="635.75" y="200">[timeout]</text>
  </g>
  <g>
    <polyline style="fill: none; fill-opacity:0; stroke-width: 2; stroke: #000000" points="599.126,282.708 599.126,460.25 1514.86,460.25 "/>
    <polyline style="fill: none; fill-opacity:0; stroke-width: 2; stroke: #000000" points="1507.09,465.25 1517.09,460.25 1507.09,455.25 "/>
  </g>
  <g>
    <polyline style="fill: none; fill-opacity:0; stroke-width: 2; stroke: #000000" points="319,151 329,151 375.25,151 380.778,151 "/>
    <polyline style="fill: none; fill-opacity:0; stroke-width: 2; stroke: #000000" points="373.014,156 383.014,151 373.014,146 "/>
  </g>
  <g>
    <ellipse style="fill: #ffffff" cx="40" cy="592.762" rx="20" ry="20"/>
    <ellipse style="fill: none; fill-opacity:0; stroke-width: 2; stroke: #000000" cx="40" cy="592.762" rx="20" ry="20"/>
    <line style="fill: none; fill-opacity:0; stroke-width: 2; stroke: #000000" x1="25.858" y1="578.62" x2="54.142" y2="606.904"/>
    <line style="fill: none; fill-opacity:0; stroke-width: 2; stroke: #000000" x1="25.858" y1="606.904" x2="54.142" y2="578.62"/>
  </g>
  <g>
    <rect style="fill: #ffffff" x="161.842" y="566.762" width="80" height="52" rx="20" ry="20"/>
    <rect style="fill: none; fill-opacity:0; stroke-width: 2; stroke: #000000" x="161.842" y="566.762" width="80" height="52" rx="20" ry="20"/>
    <text font-size="12.8" style="fill: #000000;text-anchor:middle;font-family:sans-serif;font-style:normal;font-weight:normal" x="201.842" y="588.662">
      <tspan x="201.842" y="588.662">Raise</tspan>
      <tspan x="201.842" y="604.662">error</tspan>
    </text>
  </g>
  <g>
    <polyline style="fill: none; fill-opacity:0; stroke-width: 2; stroke: #000000" points="161.842,592.762 151.842,592.762 70,592.762 64.4721,592.762 "/>
    <polyline style="fill: none; fill-opacity:0; stroke-width: 2; stroke: #000000" points="72.2361,587.762 62.2361,592.762 72.2361,597.762 "/>
  </g>
  <g>
    <rect style="fill: #ffffff" x="1033" y="117" width="122.094" height="68" rx="20" ry="20"/>
    <rect style="fill: none; fill-opacity:0; stroke-width: 2; stroke: #000000" x="1033" y="117" width="122.094" height="68" rx="20" ry="20"/>
    <text font-size="12.8" style="fill: #000000;text-anchor:middle;font-family:sans-serif;font-style:normal;font-weight:normal" x="1094.05" y="138.9">
      <tspan x="1094.05" y="138.9">Expect</tspan>
      <tspan x="1094.05" y="154.9">PasswordMatch</tspan>
      <tspan x="1094.05" y="170.9">or PromptMatch</tspan>
    </text>
  </g>
  <g>
    <polygon style="fill: #ffffff" points="1074.05,262.708 1094.05,242.708 1114.05,262.708 1094.05,282.708 "/>
    <polygon style="fill: none; fill-opacity:0; stroke-width: 2; stroke: #000000" points="1074.05,262.708 1094.05,242.708 1114.05,262.708 1094.05,282.708 "/>
  </g>
  <g>
    <polyline style="fill: none; fill-opacity:0; stroke-width: 2; stroke: #000000" points="1094.05,185 1094.05,213.854 1094.05,213.854 1094.05,238.236 "/>
    <polyline style="fill: none; fill-opacity:0; stroke-width: 2; stroke: #000000" points="1089.05,230.472 1094.05,240.472 1099.05,230.472 "/>
  </g>
  <g>
    <polyline style="fill: none; fill-opacity:0; stroke-width: 2; stroke: #000000" points="1074.05,262.708 1064.05,262.708 629.126,262.708 623.598,262.708 "/>
    <polyline style="fill: none; fill-opacity:0; stroke-width: 2; stroke: #000000" points="631.362,257.708 621.362,262.708 631.362,267.708 "/>
    <text font-size="12.7998" style="fill: #000000;text-anchor:middle;font-family:sans-serif;font-style:normal;font-weight:normal" x="1018.25" y="250.458">[timeout]</text>
  </g>
  <g>
    <polygon style="fill: #ffffff" points="1074.05,371.548 1094.05,351.548 1114.05,371.548 1094.05,391.548 "/>
    <polygon style="fill: none; fill-opacity:0; stroke-width: 2; stroke: #000000" points="1074.05,371.548 1094.05,351.548 1114.05,371.548 1094.05,391.548 "/>
  </g>
  <g>
    <polyline style="fill: none; fill-opacity:0; stroke-width: 2; stroke: #000000" points="1094.05,282.708 1094.05,292.708 1094.05,341.548 1094.05,347.076 "/>
    <polyline style="fill: none; fill-opacity:0; stroke-width: 2; stroke: #000000" points="1089.05,339.312 1094.05,349.312 1099.05,339.312 "/>
    <text font-size="12.7998" style="fill: #000000;text-anchor:middle;font-family:sans-serif;font-style:normal;font-weight:normal" x="1036.25" y="335.128">[PasswordMatch]</text>
  </g>
  <g>
    <polyline style="fill: none; fill-opacity:0; stroke-width: 2; stroke: #000000" points="741.374,171 741.374,371.548 1069.57,371.548 "/>
    <polyline style="fill: none; fill-opacity:0; stroke-width: 2; stroke: #000000" points="1061.81,376.548 1071.81,371.548 1061.81,366.548 "/>
    <text font-size="12.7998" style="fill: #000000;text-anchor:middle;font-family:sans-serif;font-style:normal;font-weight:normal" x="821.5" y="361.274">[PasswordMatch]</text>
  </g>
  <g>
    <rect style="fill: #ffffff" x="1208.85" y="345.548" width="80" height="52" rx="20" ry="20"/>
    <rect style="fill: none; fill-opacity:0; stroke-width: 2; stroke: #000000" x="1208.85" y="345.548" width="80" height="52" rx="20" ry="20"/>
    <text font-size="12.8" style="fill: #000000;text-anchor:middle;font-family:sans-serif;font-style:normal;font-weight:normal" x="1248.85" y="367.448">
      <tspan x="1248.85" y="367.448">Write</tspan>
      <tspan x="1248.85" y="383.448">Password</tspan>
    </text>
  </g>
  <g>
    <polyline style="fill: none; fill-opacity:0; stroke-width: 2; stroke: #000000" points="1114.05,371.548 1124.05,371.548 1198.85,371.548 1204.38,371.548 "/>
    <polyline style="fill: none; fill-opacity:0; stroke-width: 2; stroke: #000000" points="1196.62,376.548 1206.62,371.548 1196.62,366.548 "/>
  </g>
  <g>
    <polyline style="fill: none; fill-opacity:0; stroke-width: 2; stroke: #000000" points="1288.85,371.548 1365.57,371.548 1365.57,293.18 "/>
    <polyline style="fill: none; fill-opacity:0; stroke-width: 2; stroke: #000000" points="1370.57,300.944 1365.57,290.944 1360.57,300.944 "/>
  </g>
  <g>
    <rect style="fill: #ffffff" x="1325.57" y="236.708" width="80" height="52" rx="20" ry="20"/>
    <rect style="fill: none; fill-opacity:0; stroke-width: 2; stroke: #000000" x="1325.57" y="236.708" width="80" height="52" rx="20" ry="20"/>
    <text font-size="12.8" style="fill: #000000;text-anchor:middle;font-family:sans-serif;font-style:normal;font-weight:normal" x="1365.57" y="258.608">
      <tspan x="1365.57" y="258.608">Expect</tspan>
      <tspan x="1365.57" y="274.608">Prompt</tspan>
    </text>
  </g>
  <g>
    <polygon style="fill: #ffffff" points="1519.33,262.708 1539.33,242.708 1559.33,262.708 1539.33,282.708 "/>
    <polygon style="fill: none; fill-opacity:0; stroke-width: 2; stroke: #000000" points="1519.33,262.708 1539.33,242.708 1559.33,262.708 1539.33,282.708 "/>
  </g>
  <g>
    <polyline style="fill: none; fill-opacity:0; stroke-width: 2; stroke: #000000" points="1405.57,262.708 1415.57,262.708 1509.33,262.708 1514.86,262.708 "/>
    <polyline style="fill: none; fill-opacity:0; stroke-width: 2; stroke: #000000" points="1507.09,267.708 1517.09,262.708 1507.09,257.708 "/>
  </g>
  <g>
    <ellipse style="fill: #ffffff" cx="1801.25" cy="262.708" rx="15" ry="15"/>
    <ellipse style="fill: none; fill-opacity:0; stroke-width: 2; stroke: #000000" cx="1801.25" cy="262.708" rx="15" ry="15"/>
    <ellipse style="fill: #000000" cx="1801.25" cy="262.708" rx="10" ry="10"/>
  </g>
  <g>
    <rect style="fill: #ffffff" x="1499.33" y="566.762" width="80" height="52" rx="20" ry="20"/>
    <rect style="fill: none; fill-opacity:0; stroke-width: 2; stroke: #000000" x="1499.33" y="566.762" width="80" height="52" rx="20" ry="20"/>
    <text font-size="12.8" style="fill: #000000;text-anchor:middle;font-family:sans-serif;font-style:normal;font-weight:normal" x="1539.33" y="588.662">
      <tspan x="1539.33" y="588.662">Set</tspan>
      <tspan x="1539.33" y="604.662">Prompt</tspan>
    </text>
  </g>
  <g>
    <polyline style="fill: none; fill-opacity:0; stroke-width: 2; stroke: #000000" points="1539.33,282.708 1539.33,292.708 1539.33,430.25 1539.33,435.778 "/>
    <polyline style="fill: none; fill-opacity:0; stroke-width: 2; stroke: #000000" points="1534.33,428.014 1539.33,438.014 1544.33,428.014 "/>
  </g>
  <g>
    <polygon style="fill: #ffffff" points="1408.81,592.762 1428.81,572.762 1448.81,592.762 1428.81,612.762 "/>
    <polygon style="fill: none; fill-opacity:0; stroke-width: 2; stroke: #000000" points="1408.81,592.762 1428.81,572.762 1448.81,592.762 1428.81,612.762 "/>
  </g>
  <g>
    <polyline style="fill: none; fill-opacity:0; stroke-width: 2; stroke: #000000" points="1499.33,592.762 1489.33,592.762 1458.81,592.762 1453.28,592.762 "/>
    <polyline style="fill: none; fill-opacity:0; stroke-width: 2; stroke: #000000" points="1461.05,587.762 1451.05,592.762 1461.05,597.762 "/>
  </g>
  <g>
    <rect style="fill: #ffffff" x="894.874" y="566.762" width="80" height="52" rx="20" ry="20"/>
    <rect style="fill: none; fill-opacity:0; stroke-width: 2; stroke: #000000" x="894.874" y="566.762" width="80" height="52" rx="20" ry="20"/>
    <text font-size="12.8" style="fill: #000000;text-anchor:middle;font-family:sans-serif;font-style:normal;font-weight:normal" x="934.874" y="588.662">
      <tspan x="934.874" y="588.662">Expect</tspan>
      <tspan x="934.874" y="604.662">Prompt</tspan>
    </text>
  </g>
  <g>
    <polyline style="fill: none; fill-opacity:0; stroke-width: 2; stroke: #000000" points="1408.81,592.762 1398.81,592.762 984.874,592.762 979.346,592.762 "/>
    <polyline style="fill: none; fill-opacity:0; stroke-width: 2; stroke: #000000" points="987.11,587.762 977.11,592.762 987.11,597.762 "/>
  </g>
  <g>
    <polygon style="fill: #ffffff" points="587.132,592.762 607.132,572.762 627.132,592.762 607.132,612.762 "/>
    <polygon style="fill: none; fill-opacity:0; stroke-width: 2; stroke: #000000" points="587.132,592.762 607.132,572.762 627.132,592.762 607.132,612.762 "/>
  </g>
  <g>
    <polyline style="fill: none; fill-opacity:0; stroke-width: 2; stroke: #000000" points="894.874,592.762 884.874,592.762 637.132,592.762 631.604,592.762 "/>
    <polyline style="fill: none; fill-opacity:0; stroke-width: 2; stroke: #000000" points="639.368,587.762 629.368,592.762 639.368,597.762 "/>
  </g>
  <g>
    <polyline style="fill: none; fill-opacity:0; stroke-width: 2; stroke: #000000" points="984.767,698.25 1428.81,698.25 1428.81,617.234 "/>
    <polyline style="fill: none; fill-opacity:0; stroke-width: 2; stroke: #000000" points="1433.81,624.998 1428.81,614.998 1423.81,624.998 "/>
  </g>
  <g>
    <polyline style="fill: none; fill-opacity:0; stroke-width: 2; stroke: #000000" points="607.132,612.762 607.132,698.25 895.026,698.25 "/>
    <polyline style="fill: none; fill-opacity:0; stroke-width: 2; stroke: #000000" points="887.262,703.25 897.262,698.25 887.262,693.25 "/>
    <text font-size="12.7998" style="fill: #000000;text-anchor:middle;font-family:sans-serif;font-style:normal;font-weight:normal" x="664.624" y="651.902">[PromptMatch]</text>
  </g>
  <g>
    <polygon style="fill: #ffffff" points="424.65,592.762 444.65,572.762 464.65,592.762 444.65,612.762 "/>
    <polygon style="fill: none; fill-opacity:0; stroke-width: 2; stroke: #000000" points="424.65,592.762 444.65,572.762 464.65,592.762 444.65,612.762 "/>
  </g>
  <g>
    <polyline style="fill: none; fill-opacity:0; stroke-width: 2; stroke: #000000" points="587.132,592.762 577.132,592.762 474.65,592.762 469.122,592.762 "/>
    <polyline style="fill: none; fill-opacity:0; stroke-width: 2; stroke: #000000" points="476.886,587.762 466.886,592.762 476.886,597.762 "/>
    <text font-size="12.7998" style="fill: #000000;text-anchor:middle;font-family:sans-serif;font-style:normal;font-weight:normal" x="542.446" y="577.734">[timeout]</text>
  </g>
  <g>
    <polyline style="fill: none; fill-opacity:0; stroke-width: 2; stroke: #000000" points="444.65,612.762 444.65,757 1801.25,757 1801.25,283.185 "/>
    <polyline style="fill: none; fill-opacity:0; stroke-width: 2; stroke: #000000" points="1806.25,290.949 1801.25,280.949 1796.25,290.949 "/>
    <text font-size="12.7998" style="fill: #000000;text-anchor:middle;font-family:sans-serif;font-style:normal;font-weight:normal" x="475.667" y="656.995">[else]</text>
  </g>
  <g>
    <polyline style="fill: none; fill-opacity:0; stroke-width: 2; stroke: #000000" points="424.65,592.762 414.65,592.762 251.842,592.762 246.314,592.762 "/>
    <polyline style="fill: none; fill-opacity:0; stroke-width: 2; stroke: #000000" points="254.078,587.762 244.078,592.762 254.078,597.762 "/>
    <text font-size="12.7998" style="fill: #000000;text-anchor:middle;font-family:sans-serif;font-style:normal;font-weight:normal" x="345.326" y="576.438">[matches &lt; 2]</text>
  </g>
  <g>
    <rect style="fill: #ffffff" x="161.842" y="239.5" width="80" height="68" rx="20" ry="20"/>
    <rect style="fill: none; fill-opacity:0; stroke-width: 2; stroke: #000000" x="161.842" y="239.5" width="80" height="68" rx="20" ry="20"/>
    <text font-size="12.8" style="fill: #000000;text-anchor:middle;font-family:sans-serif;font-style:normal;font-weight:normal" x="201.842" y="261.4">
      <tspan x="201.842" y="261.4">Set</tspan>
      <tspan x="201.842" y="277.4">Random</tspan>
      <tspan x="201.842" y="293.4">Prompt</tspan>
    </text>
  </g>
  <g>
    <rect style="fill: #ffffff" x="385.25" y="109" width="118.8" height="84" rx="20" ry="20"/>
    <rect style="fill: none; fill-opacity:0; stroke-width: 2; stroke: #000000" x="385.25" y="109" width="118.8" height="84" rx="20" ry="20"/>
    <text font-size="12.8" style="fill: #000000;text-anchor:middle;font-family:sans-serif;font-style:normal;font-weight:normal" x="444.65" y="130.9">
      <tspan x="444.65" y="130.9">Expect</tspan>
      <tspan x="444.65" y="146.9">PromptMatch</tspan>
      <tspan x="444.65" y="162.9">LoginMatch</tspan>
      <tspan x="444.65" y="178.9">PasswordMatch</tspan>
    </text>
  </g>
  <g>
    <rect style="fill: #ffffff" x="899.498" y="672.25" width="85.2688" height="52" rx="20" ry="20"/>
    <rect style="fill: none; fill-opacity:0; stroke-width: 2; stroke: #000000" x="899.498" y="672.25" width="85.2688" height="52" rx="20" ry="20"/>
    <text font-size="12.8" style="fill: #000000;text-anchor:middle;font-family:sans-serif;font-style:normal;font-weight:normal" x="942.132" y="694.15">
      <tspan x="942.132" y="694.15">Increment</tspan>
      <tspan x="942.132" y="710.15">Matches</tspan>
    </text>
  </g>
  <g>
    <polygon style="fill: #ffffff" points="1519.33,460.25 1539.33,440.25 1559.33,460.25 1539.33,480.25 "/>
    <polygon style="fill: none; fill-opacity:0; stroke-width: 2; stroke: #000000" points="1519.33,460.25 1539.33,440.25 1559.33,460.25 1539.33,480.25 "/>
  </g>
  <g>
    <polyline style="fill: none; fill-opacity:0; stroke-width: 2; stroke: #000000" points="1539.33,480.25 1539.33,490.25 1539.33,556.762 1539.33,562.29 "/>
    <polyline style="fill: none; fill-opacity:0; stroke-width: 2; stroke: #000000" points="1534.33,554.526 1539.33,564.526 1544.33,554.526 "/>
  </g>
  <g>
    <polygon style="fill: #ffffff" points="1663.75,262.708 1683.75,242.708 1703.75,262.708 1683.75,282.708 "/>
    <polygon style="fill: none; fill-opacity:0; stroke-width: 2; stroke: #000000" points="1663.75,262.708 1683.75,242.708 1703.75,262.708 1683.75,282.708 "/>
  </g>
  <g>
    <polyline style="fill: none; fill-opacity:0; stroke-width: 2; stroke: #000000" points="1559.33,262.708 1569.33,262.708 1653.75,262.708 1659.28,262.708 "/>
    <polyline style="fill: none; fill-opacity:0; stroke-width: 2; stroke: #000000" points="1651.51,267.708 1661.51,262.708 1651.51,257.708 "/>
    <text font-size="12.7998" style="fill: #000000;text-anchor:middle;font-family:sans-serif;font-style:normal;font-weight:normal" x="1601.54" y="252.708">[PromptMatch]</text>
  </g>
  <g>
    <polyline style="fill: none; fill-opacity:0; stroke-width: 2; stroke: #000000" points="1703.75,262.708 1713.75,262.708 1776.25,262.708 1781.78,262.708 "/>
    <polyline style="fill: none; fill-opacity:0; stroke-width: 2; stroke: #000000" points="1774.01,267.708 1784.01,262.708 1774.01,257.708 "/>
  </g>
  <g>
    <polygon style="fill: #ffffff" points="1228.85,92 1248.85,72 1268.85,92 1248.85,112 "/>
    <polygon style="fill: none; fill-opacity:0; stroke-width: 2; stroke: #000000" points="1228.85,92 1248.85,72 1268.85,92 1248.85,112 "/>
  </g>
  <g>
    <polyline style="fill: none; fill-opacity:0; stroke-width: 2; stroke: #000000" points="1114.05,262.708 1248.85,262.708 1248.85,116.472 "/>
    <polyline style="fill: none; fill-opacity:0; stroke-width: 2; stroke: #000000" points="1253.85,124.236 1248.85,114.236 1243.85,124.236 "/>
    <text font-size="12.7998" style="fill: #000000;text-anchor:middle;font-family:sans-serif;font-style:normal;font-weight:normal" x="1171.45" y="252.708">[PromptMatch]</text>
  </g>
  <g>
    <polyline style="fill: none; fill-opacity:0; stroke-width: 2; stroke: #000000" points="741.374,131 741.374,92 1224.38,92 "/>
    <polyline style="fill: none; fill-opacity:0; stroke-width: 2; stroke: #000000" points="1216.62,97 1226.62,92 1216.62,87 "/>
    <text font-size="12.7998" style="fill: #000000;text-anchor:middle;font-family:sans-serif;font-style:normal;font-weight:normal" x="814" y="85">[PromptMatch]</text>
  </g>
  <g>
    <polyline style="fill: none; fill-opacity:0; stroke-width: 2; stroke: #000000" points="1268.85,92 1683.75,92 1683.75,238.236 "/>
    <polyline style="fill: none; fill-opacity:0; stroke-width: 2; stroke: #000000" points="1678.75,230.472 1683.75,240.472 1688.75,230.472 "/>
  </g>
</svg>
