<?xml version="1.0" encoding="UTF-8" standalone="no"?>
<!DOCTYPE svg PUBLIC "-//W3C//DTD SVG 1.0//EN" "http://www.w3.org/TR/2001/PR-SVG-20010719/DTD/svg10.dtd">
<svg width="82cm" height="35cm" viewBox="-214 159 1633 695" xmlns="http://www.w3.org/2000/svg" xmlns:xlink="http://www.w3.org/1999/xlink">
  <ellipse style="fill: #000000" cx="-192.25" cy="251" rx="10" ry="10"/>
  <g>
    <rect style="fill: #ffffff" x="46" y="225" width="212.375" height="52" rx="20" ry="20"/>
    <rect style="fill: none; fill-opacity:0; stroke-width: 2; stroke: #000000" x="46" y="225" width="212.375" height="52" rx="20" ry="20"/>
    <text font-size="12.8" style="fill: #000000;text-anchor:middle;font-family:sans-serif;font-style:normal;font-weight:normal" x="152.188" y="246.9">
      <tspan x="152.188" y="246.9">Send command + arguments,</tspan>
      <tspan x="152.188" y="262.9">timeout to connection</tspan>
    </text>
  </g>
  <g>
    <polygon style="fill: #ffffff" points="304.944,251 324.944,231 344.944,251 324.944,271 "/>
    <polygon style="fill: none; fill-opacity:0; stroke-width: 2; stroke: #000000" points="304.944,251 324.944,231 344.944,251 324.944,271 "/>
  </g>
  <g>
    <rect style="fill: #ffffff" x="652.176" y="225" width="80" height="52" rx="20" ry="20"/>
    <rect style="fill: none; fill-opacity:0; stroke-width: 2; stroke: #000000" x="652.176" y="225" width="80" height="52" rx="20" ry="20"/>
    <text font-size="12.8" style="fill: #000000;text-anchor:middle;font-family:sans-serif;font-style:normal;font-weight:normal" x="692.176" y="246.9">
      <tspan x="692.176" y="246.9">Search</tspan>
      <tspan x="692.176" y="262.9">Line</tspan>
    </text>
  </g>
  <g>
    <polyline style="fill: none; fill-opacity:0; stroke-width: 2; stroke: #000000" points="468.304,251 478.304,251 642.176,251 647.704,251 "/>
    <polyline style="fill: none; fill-opacity:0; stroke-width: 2; stroke: #000000" points="639.94,256 649.94,251 639.94,246 "/>
    <text font-size="12.7998" style="fill: #000000;text-anchor:middle;font-family:sans-serif;font-style:normal;font-weight:normal" x="550.24" y="241">[line in stdout]</text>
  </g>
  <g>
    <polygon style="fill: #ffffff" points="816,251 836,231 856,251 836,271 "/>
    <polygon style="fill: none; fill-opacity:0; stroke-width: 2; stroke: #000000" points="816,251 836,231 856,251 836,271 "/>
  </g>
  <g>
    <polyline style="fill: none; fill-opacity:0; stroke-width: 2; stroke: #000000" points="732.176,251 742.176,251 806,251 811.528,251 "/>
    <polyline style="fill: none; fill-opacity:0; stroke-width: 2; stroke: #000000" points="803.764,256 813.764,251 803.764,246 "/>
  </g>
  <g>
    <polyline style="fill: none; fill-opacity:0; stroke-width: 2; stroke: #000000" points="836,231 836,201 324.944,201 324.944,226.528 "/>
    <polyline style="fill: none; fill-opacity:0; stroke-width: 2; stroke: #000000" points="319.944,218.764 324.944,228.764 329.944,218.764 "/>
    <text font-size="12.7998" style="fill: #000000;text-anchor:middle;font-family:sans-serif;font-style:normal;font-weight:normal" x="570.472" y="191">[else]</text>
  </g>
  <g>
    <rect style="fill: #ffffff" x="947" y="225" width="80" height="52" rx="20" ry="20"/>
    <rect style="fill: none; fill-opacity:0; stroke-width: 2; stroke: #000000" x="947" y="225" width="80" height="52" rx="20" ry="20"/>
    <text font-size="12.8" style="fill: #000000;text-anchor:middle;font-family:sans-serif;font-style:normal;font-weight:normal" x="987" y="246.9">
      <tspan x="987" y="246.9">Store</tspan>
      <tspan x="987" y="262.9">group</tspan>
    </text>
  </g>
  <g>
    <polyline style="fill: none; fill-opacity:0; stroke-width: 2; stroke: #000000" points="856,251 866,251 937,251 942.528,251 "/>
    <polyline style="fill: none; fill-opacity:0; stroke-width: 2; stroke: #000000" points="934.764,256 944.764,251 934.764,246 "/>
    <text font-size="12.7998" style="fill: #000000;text-anchor:middle;font-family:sans-serif;font-style:normal;font-weight:normal" x="891.5" y="241">[match]</text>
  </g>
  <g>
    <polygon style="fill: #ffffff" points="304.944,348.292 324.944,328.292 344.944,348.292 324.944,368.292 "/>
    <polygon style="fill: none; fill-opacity:0; stroke-width: 2; stroke: #000000" points="304.944,348.292 324.944,328.292 344.944,348.292 324.944,368.292 "/>
  </g>
  <g>
    <polyline style="fill: none; fill-opacity:0; stroke-width: 2; stroke: #000000" points="324.944,271 324.944,281 324.944,318.292 324.944,323.82 "/>
    <polyline style="fill: none; fill-opacity:0; stroke-width: 2; stroke: #000000" points="319.944,316.056 324.944,326.056 329.944,316.056 "/>
    <text font-size="12.7998" style="fill: #000000;text-anchor:middle;font-family:sans-serif;font-style:normal;font-weight:normal" x="314.944" y="289.646">[timeout]</text>
  </g>
  <g>
    <polygon style="fill: #ffffff" points="511.236,424.54 531.236,404.54 551.236,424.54 531.236,444.54 "/>
    <polygon style="fill: none; fill-opacity:0; stroke-width: 2; stroke: #000000" points="511.236,424.54 531.236,404.54 551.236,424.54 531.236,444.54 "/>
  </g>
  <g>
    <polyline style="fill: none; fill-opacity:0; stroke-width: 2; stroke: #000000" points="448.304,271 448.304,424.54 506.764,424.54 "/>
    <polyline style="fill: none; fill-opacity:0; stroke-width: 2; stroke: #000000" points="499,429.54 509,424.54 499,419.54 "/>
    <text font-size="12.7998" style="fill: #000000;text-anchor:middle;font-family:sans-serif;font-style:normal;font-weight:normal" x="472.304" y="317.106">[else]</text>
  </g>
  <g>
    <polygon style="fill: #ffffff" points="967,348.292 987,328.292 1007,348.292 987,368.292 "/>
    <polygon style="fill: none; fill-opacity:0; stroke-width: 2; stroke: #000000" points="967,348.292 987,328.292 1007,348.292 987,368.292 "/>
  </g>
  <g>
    <polyline style="fill: none; fill-opacity:0; stroke-width: 2; stroke: #000000" points="987,277 987,287 987,318.292 987,323.82 "/>
    <polyline style="fill: none; fill-opacity:0; stroke-width: 2; stroke: #000000" points="982,316.056 987,326.056 992,316.056 "/>
  </g>
  <g>
    <polyline style="fill: none; fill-opacity:0; stroke-width: 2; stroke: #000000" points="967,348.292 531.236,348.292 531.236,400.068 "/>
    <polyline style="fill: none; fill-opacity:0; stroke-width: 2; stroke: #000000" points="526.236,392.304 531.236,402.304 536.236,392.304 "/>
    <text font-size="12.7998" style="fill: #000000;text-anchor:middle;font-family:sans-serif;font-style:normal;font-weight:normal" x="739.12" y="338.292">[else]</text>
  </g>
  <g>
    <polygon style="fill: #ffffff" points="1114,348.292 1134,328.292 1154,348.292 1134,368.292 "/>
    <polygon style="fill: none; fill-opacity:0; stroke-width: 2; stroke: #000000" points="1114,348.292 1134,328.292 1154,348.292 1134,368.292 "/>
  </g>
  <g>
    <polyline style="fill: none; fill-opacity:0; stroke-width: 2; stroke: #000000" points="1007,348.292 1017,348.292 1104,348.292 1109.53,348.292 "/>
    <polyline style="fill: none; fill-opacity:0; stroke-width: 2; stroke: #000000" points="1101.76,353.292 1111.76,348.292 1101.76,343.292 "/>
    <text font-size="12.7998" style="fill: #000000;text-anchor:middle;font-family:sans-serif;font-style:normal;font-weight:normal" x="1050.5" y="338.292">[no group]</text>
  </g>
  <g>
    <polygon style="fill: #ffffff" points="511.236,602.622 531.236,582.622 551.236,602.622 531.236,622.622 "/>
    <polygon style="fill: none; fill-opacity:0; stroke-width: 2; stroke: #000000" points="511.236,602.622 531.236,582.622 551.236,602.622 531.236,622.622 "/>
  </g>
  <g>
    <rect style="fill: #ffffff" x="652.176" y="576.622" width="80" height="52" rx="20" ry="20"/>
    <rect style="fill: none; fill-opacity:0; stroke-width: 2; stroke: #000000" x="652.176" y="576.622" width="80" height="52" rx="20" ry="20"/>
    <text font-size="12.8" style="fill: #000000;text-anchor:middle;font-family:sans-serif;font-style:normal;font-weight:normal" x="692.176" y="598.522">
      <tspan x="692.176" y="598.522">Search</tspan>
      <tspan x="692.176" y="614.522">Line</tspan>
    </text>
  </g>
  <g>
    <polyline style="fill: none; fill-opacity:0; stroke-width: 2; stroke: #000000" points="551.236,602.622 561.236,602.622 642.176,602.622 647.704,602.622 "/>
    <polyline style="fill: none; fill-opacity:0; stroke-width: 2; stroke: #000000" points="639.94,607.622 649.94,602.622 639.94,597.622 "/>
    <text font-size="12.7998" style="fill: #000000;text-anchor:middle;font-family:sans-serif;font-style:normal;font-weight:normal" x="591.708" y="592.622">[line in stderr]</text>
  </g>
  <g>
    <polygon style="fill: #ffffff" points="816,602.622 836,582.622 856,602.622 836,622.622 "/>
    <polygon style="fill: none; fill-opacity:0; stroke-width: 2; stroke: #000000" points="816,602.622 836,582.622 856,602.622 836,622.622 "/>
  </g>
  <g>
    <polyline style="fill: none; fill-opacity:0; stroke-width: 2; stroke: #000000" points="732.176,602.622 742.176,602.622 806,602.622 811.528,602.622 "/>
    <polyline style="fill: none; fill-opacity:0; stroke-width: 2; stroke: #000000" points="803.764,607.622 813.764,602.622 803.764,597.622 "/>
  </g>
  <g>
    <rect style="fill: #ffffff" x="652.176" y="398.54" width="80" height="52" rx="20" ry="20"/>
    <rect style="fill: none; fill-opacity:0; stroke-width: 2; stroke: #000000" x="652.176" y="398.54" width="80" height="52" rx="20" ry="20"/>
    <text font-size="12.8" style="fill: #000000;text-anchor:middle;font-family:sans-serif;font-style:normal;font-weight:normal" x="692.176" y="420.44">
      <tspan x="692.176" y="420.44">Log</tspan>
      <tspan x="692.176" y="436.44">Line</tspan>
    </text>
  </g>
  <g>
    <polyline style="fill: none; fill-opacity:0; stroke-width: 2; stroke: #000000" points="836,582.622 836,424.54 736.648,424.54 "/>
    <polyline style="fill: none; fill-opacity:0; stroke-width: 2; stroke: #000000" points="744.412,419.54 734.412,424.54 744.412,429.54 "/>
    <text font-size="12.7998" style="fill: #000000;text-anchor:middle;font-family:sans-serif;font-style:normal;font-weight:normal" x="859.75" y="507.58">[else]</text>
  </g>
  <g>
    <polyline style="fill: none; fill-opacity:0; stroke-width: 2; stroke: #000000" points="652.176,424.54 642.176,424.54 561.236,424.54 555.708,424.54 "/>
    <polyline style="fill: none; fill-opacity:0; stroke-width: 2; stroke: #000000" points="563.472,419.54 553.472,424.54 563.472,429.54 "/>
  </g>
  <g>
    <polyline style="fill: none; fill-opacity:0; stroke-width: 2; stroke: #000000" points="856,602.622 1134,602.622 1134,372.764 "/>
    <polyline style="fill: none; fill-opacity:0; stroke-width: 2; stroke: #000000" points="1139,380.528 1134,370.528 1129,380.528 "/>
    <text font-size="12.7998" style="fill: #000000;text-anchor:middle;font-family:sans-serif;font-style:normal;font-weight:normal" x="985" y="592.622">[match]</text>
  </g>
  <g>
    <rect style="fill: #ffffff" x="1220" y="322.292" width="83.075" height="52" rx="20" ry="20"/>
    <rect style="fill: none; fill-opacity:0; stroke-width: 2; stroke: #000000" x="1220" y="322.292" width="83.075" height="52" rx="20" ry="20"/>
    <text font-size="12.8" style="fill: #000000;text-anchor:middle;font-family:sans-serif;font-style:normal;font-weight:normal" x="1261.54" y="344.192">
      <tspan x="1261.54" y="344.192">Raise</tspan>
      <tspan x="1261.54" y="360.192">Exception</tspan>
    </text>
  </g>
  <g>
    <polyline style="fill: none; fill-opacity:0; stroke-width: 2; stroke: #000000" points="1154,348.292 1164,348.292 1210,348.292 1215.53,348.292 "/>
    <polyline style="fill: none; fill-opacity:0; stroke-width: 2; stroke: #000000" points="1207.76,353.292 1217.76,348.292 1207.76,343.292 "/>
  </g>
  <g>
    <ellipse style="fill: #ffffff" cx="1398" cy="348.292" rx="20" ry="20"/>
    <ellipse style="fill: none; fill-opacity:0; stroke-width: 2; stroke: #000000" cx="1398" cy="348.292" rx="20" ry="20"/>
    <line style="fill: none; fill-opacity:0; stroke-width: 2; stroke: #000000" x1="1383.86" y1="334.15" x2="1412.14" y2="362.434"/>
    <line style="fill: none; fill-opacity:0; stroke-width: 2; stroke: #000000" x1="1383.86" y1="362.434" x2="1412.14" y2="334.15"/>
  </g>
  <g>
    <polyline style="fill: none; fill-opacity:0; stroke-width: 2; stroke: #000000" points="1303.08,348.292 1313.08,348.292 1368,348.292 1373.53,348.292 "/>
    <polyline style="fill: none; fill-opacity:0; stroke-width: 2; stroke: #000000" points="1365.76,353.292 1375.76,348.292 1365.76,343.292 "/>
  </g>
  <g>
    <polygon style="fill: #ffffff" points="511.236,716 531.236,696 551.236,716 531.236,736 "/>
    <polygon style="fill: none; fill-opacity:0; stroke-width: 2; stroke: #000000" points="511.236,716 531.236,696 551.236,716 531.236,736 "/>
  </g>
  <g>
    <polyline style="fill: none; fill-opacity:0; stroke-width: 2; stroke: #000000" points="531.236,622.622 531.236,632.622 531.236,686 531.236,691.528 "/>
    <polyline style="fill: none; fill-opacity:0; stroke-width: 2; stroke: #000000" points="526.236,683.764 531.236,693.764 536.236,683.764 "/>
    <text font-size="12.7998" style="fill: #000000;text-anchor:middle;font-family:sans-serif;font-style:normal;font-weight:normal" x="501.986" y="661.31">[else]</text>
  </g>
  <g>
    <polyline style="fill: none; fill-opacity:0; stroke-width: 2; stroke: #000000" points="531.236,736 531.236,746 531.236,775 531.236,780.528 "/>
    <polyline style="fill: none; fill-opacity:0; stroke-width: 2; stroke: #000000" points="526.236,772.764 531.236,782.764 536.236,772.764 "/>
  </g>
  <g>
    <ellipse style="fill: #ffffff" cx="-192.25" cy="819" rx="15" ry="15"/>
    <ellipse style="fill: none; fill-opacity:0; stroke-width: 2; stroke: #000000" cx="-192.25" cy="819" rx="15" ry="15"/>
    <ellipse style="fill: #000000" cx="-192.25" cy="819" rx="10" ry="10"/>
  </g>
  <g>
    <polyline style="fill: none; fill-opacity:0; stroke-width: 2; stroke: #000000" points="491.236,819 481.236,819 -167.25,819 -172.778,819 "/>
    <polyline style="fill: none; fill-opacity:0; stroke-width: 2; stroke: #000000" points="-165.014,814 -175.014,819 -165.014,824 "/>
  </g>
  <g>
    <polyline style="fill: none; fill-opacity:0; stroke-width: 2; stroke: #000000" points="324.944,368.292 324.944,378.292 324.944,566.622 324.944,572.15 "/>
    <polyline style="fill: none; fill-opacity:0; stroke-width: 2; stroke: #000000" points="319.944,564.386 324.944,574.386 329.944,564.386 "/>
    <text font-size="12.7998" style="fill: #000000;text-anchor:middle;font-family:sans-serif;font-style:normal;font-weight:normal" x="266.318" y="473.208">[trap_timeouts]</text>
  </g>
  <g>
    <rect style="fill: #ffffff" x="284.944" y="576.622" width="80" height="52" rx="20" ry="20"/>
    <rect style="fill: none; fill-opacity:0; stroke-width: 2; stroke: #000000" x="284.944" y="576.622" width="80" height="52" rx="20" ry="20"/>
    <text font-size="12.8" style="fill: #000000;text-anchor:middle;font-family:sans-serif;font-style:normal;font-weight:normal" x="324.944" y="598.522">
      <tspan x="324.944" y="598.522">Log</tspan>
      <tspan x="324.944" y="614.522">Warning</tspan>
    </text>
  </g>
  <g>
    <polyline style="fill: none; fill-opacity:0; stroke-width: 2; stroke: #000000" points="324.944,628.622 324.944,716 506.764,716 "/>
    <polyline style="fill: none; fill-opacity:0; stroke-width: 2; stroke: #000000" points="499,721 509,716 499,711 "/>
  </g>
  <g>
    <rect style="fill: #ffffff" x="46" y="322.292" width="83.075" height="52" rx="20" ry="20"/>
    <rect style="fill: none; fill-opacity:0; stroke-width: 2; stroke: #000000" x="46" y="322.292" width="83.075" height="52" rx="20" ry="20"/>
    <text font-size="12.8" style="fill: #000000;text-anchor:middle;font-family:sans-serif;font-style:normal;font-weight:normal" x="87.5375" y="344.192">
      <tspan x="87.5375" y="344.192">Raise</tspan>
      <tspan x="87.5375" y="360.192">Exception</tspan>
    </text>
  </g>
  <g>
    <ellipse style="fill: #ffffff" cx="-192.25" cy="348.292" rx="20" ry="20"/>
    <ellipse style="fill: none; fill-opacity:0; stroke-width: 2; stroke: #000000" cx="-192.25" cy="348.292" rx="20" ry="20"/>
    <line style="fill: none; fill-opacity:0; stroke-width: 2; stroke: #000000" x1="-206.392" y1="334.15" x2="-178.108" y2="362.434"/>
    <line style="fill: none; fill-opacity:0; stroke-width: 2; stroke: #000000" x1="-206.392" y1="362.434" x2="-178.108" y2="334.15"/>
  </g>
  <g>
    <polyline style="fill: none; fill-opacity:0; stroke-width: 2; stroke: #000000" points="46,348.292 36,348.292 -162.25,348.292 -167.778,348.292 "/>
    <polyline style="fill: none; fill-opacity:0; stroke-width: 2; stroke: #000000" points="-160.014,343.292 -170.014,348.292 -160.014,353.292 "/>
  </g>
  <g>
    <polyline style="fill: none; fill-opacity:0; stroke-width: 2; stroke: #000000" points="304.944,348.292 214.726,348.292 214.726,348.292 133.547,348.292 "/>
    <polyline style="fill: none; fill-opacity:0; stroke-width: 2; stroke: #000000" points="141.311,343.292 131.311,348.292 141.311,353.292 "/>
    <text font-size="12.7998" style="fill: #000000;text-anchor:middle;font-family:sans-serif;font-style:normal;font-weight:normal" x="204.726" y="338.292">[~trap_timeouts]</text>
  </g>
  <g>
    <rect style="fill: #ffffff" x="491.236" y="785" width="80" height="68" rx="20" ry="20"/>
    <rect style="fill: none; fill-opacity:0; stroke-width: 2; stroke: #000000" x="491.236" y="785" width="80" height="68" rx="20" ry="20"/>
    <text font-size="12.8" style="fill: #000000;text-anchor:middle;font-family:sans-serif;font-style:normal;font-weight:normal" x="531.236" y="806.9">
      <tspan x="531.236" y="806.9">Return</tspan>
      <tspan x="531.236" y="822.9">Matched</tspan>
      <tspan x="531.236" y="838.9">Group</tspan>
    </text>
  </g>
  <g>
    <polyline style="fill: none; fill-opacity:0; stroke-width: 2; stroke: #000000" points="258.375,251 268.375,251 294.944,251 300.472,251 "/>
    <polyline style="fill: none; fill-opacity:0; stroke-width: 2; stroke: #000000" points="292.708,256 302.708,251 292.708,246 "/>
  </g>
  <g>
    <polygon style="fill: #ffffff" points="428.304,251 448.304,231 468.304,251 448.304,271 "/>
    <polygon style="fill: none; fill-opacity:0; stroke-width: 2; stroke: #000000" points="428.304,251 448.304,231 468.304,251 448.304,271 "/>
  </g>
  <g>
    <polyline style="fill: none; fill-opacity:0; stroke-width: 2; stroke: #000000" points="344.944,251 354.944,251 418.304,251 423.832,251 "/>
    <polyline style="fill: none; fill-opacity:0; stroke-width: 2; stroke: #000000" points="416.068,256 426.068,251 416.068,246 "/>
    <text font-size="12.7998" style="fill: #000000;text-anchor:middle;font-family:sans-serif;font-style:normal;font-weight:normal" x="376.624" y="241">[else]</text>
  </g>
  <g>
    <polygon style="fill: #ffffff" points="428.304,518.866 448.304,498.866 468.304,518.866 448.304,538.866 "/>
    <polygon style="fill: none; fill-opacity:0; stroke-width: 2; stroke: #000000" points="428.304,518.866 448.304,498.866 468.304,518.866 448.304,538.866 "/>
  </g>
  <g>
    <polyline style="fill: none; fill-opacity:0; stroke-width: 2; stroke: #000000" points="428.304,518.866 386.624,518.866 386.624,348.292 349.416,348.292 "/>
    <polyline style="fill: none; fill-opacity:0; stroke-width: 2; stroke: #000000" points="357.18,343.292 347.18,348.292 357.18,353.292 "/>
    <text font-size="12.7998" style="fill: #000000;text-anchor:middle;font-family:sans-serif;font-style:normal;font-weight:normal" x="376.624" y="423.58">[timeout]</text>
  </g>
  <g>
    <polyline style="fill: none; fill-opacity:0; stroke-width: 2; stroke: #000000" points="531.236,444.54 531.236,471.703 448.304,471.703 448.304,494.394 "/>
    <polyline style="fill: none; fill-opacity:0; stroke-width: 2; stroke: #000000" points="443.304,486.63 448.304,496.63 453.304,486.63 "/>
  </g>
  <g>
    <polyline style="fill: none; fill-opacity:0; stroke-width: 2; stroke: #000000" points="448.304,538.866 448.304,602.622 506.764,602.622 "/>
    <polyline style="fill: none; fill-opacity:0; stroke-width: 2; stroke: #000000" points="499,607.622 509,602.622 499,597.622 "/>
    <text font-size="12.7998" style="fill: #000000;text-anchor:middle;font-family:sans-serif;font-style:normal;font-weight:normal" x="438.304" y="560.744">[else]</text>
  </g>
  <g>
    <rect style="fill: #ffffff" x="-138.75" y="225" width="134.8" height="52" rx="20" ry="20"/>
    <rect style="fill: none; fill-opacity:0; stroke-width: 2; stroke: #000000" x="-138.75" y="225" width="134.8" height="52" rx="20" ry="20"/>
    <text font-size="12.7998" style="fill: #000000;text-anchor:middle;font-family:sans-serif;font-style:normal;font-weight:normal" x="-71.35" y="246.9">
      <tspan x="-71.35" y="246.9">Set Matched Data</tspan>
      <tspan x="-71.35" y="262.9">to Not Available</tspan>
    </text>
  </g>
  <g>
    <polyline style="fill: none; fill-opacity:0; stroke-width: 2; stroke: #000000" points="-182.25,251 -172.25,251 -148.75,251 -143.222,251 "/>
    <polyline style="fill: none; fill-opacity:0; stroke-width: 2; stroke: #000000" points="-150.986,256 -140.986,251 -150.986,246 "/>
  </g>
  <g>
    <polyline style="fill: none; fill-opacity:0; stroke-width: 2; stroke: #000000" points="-3.95,251 6.05,251 36,251 41.5279,251 "/>
    <polyline style="fill: none; fill-opacity:0; stroke-width: 2; stroke: #000000" points="33.7639,256 43.7639,251 33.7639,246 "/>
  </g>
</svg>
